<?xml version="1.0" encoding="utf-8"?>
<svg viewBox="0 0 500 500" xmlns="http://www.w3.org/2000/svg">
  <defs>
    <clipPath clipPathUnits="userSpaceOnUse" id="clipPath18">
      <path d="M 0,0 H 595.276 V 595.276 H 0 Z" id="path16"/>
    </clipPath>
  </defs>
  <g transform="matrix(0.1, 0, 0, -0.1, 1529.589111, 176.586792)" fill="#000000" stroke="none">
    <g transform="matrix(1, 0, 0, 1, -855.661499, -1254.453369)" fill="#000000" stroke="none">
      <g transform="matrix(5.685192, 0, 0, -5.019597, 1068.394897, 1779.859009)" style="">
        <path class="accent" d="M -2242.784 459.193 L -1859.459 459.193 L -1859.459 530.154 L -2243.43 530.154 C -2250.508 530.118 -2274.793 529.767 -2281.747 529.1 C -2302.225 527.116 -2325.232 522.374 -2343.979 515.245 C -2349.765 512.98 -2366.807 504.709 -2378.682 496.684 C -2444.445 451.343 -2489.359 362.594 -2489.359 260.552 C -2489.359 112.537 -2395.091 -7.838 -2279.273 -7.838 C -2164.143 -7.838 -2070.397 111.08 -2069.215 257.813 L -2124.973 257.813 C -2126.155 150.344 -2194.901 63.316 -2279.273 63.316 C -2364.402 63.316 -2433.615 151.855 -2433.615 260.552 C -2433.615 339.801 -2396.782 408.11 -2343.91 439.403 C -2340.914 441.159 -2329.136 446.69 -2326.291 447.744 C -2311.104 453.363 -2291.849 457.103 -2275.15 458.526 C -2270.161 458.947 -2247.883 459.193 -2242.784 459.193 Z M -1859.473 347.106 L -1859.473 415.608 L -2244.378 415.608 L -2244.378 415.503 C -2248.969 415.468 -2270.711 415.257 -2275.15 414.783 C -2287.162 413.659 -2301.964 411.131 -2312.987 407.425 C -2316.203 406.354 -2327.5 401.648 -2333.506 397.153 C -2372.538 371.884 -2399.338 320.292 -2399.338 260.552 C -2399.338 175.842 -2345.587 107.181 -2279.273 107.181 C -2213.689 107.181 -2160.473 174.402 -2159.346 257.813 L -2212.919 257.813 C -2214.087 212.156 -2243.32 175.614 -2279.273 175.614 C -2315.997 175.614 -2345.724 213.649 -2345.724 260.552 C -2345.724 292.793 -2331.609 320.784 -2310.898 335.095 C -2307.943 337.167 -2301.387 340.328 -2294.405 342.716 C -2288.221 344.525 -2278.6 345.789 -2271.962 346.509 C -2268.045 346.931 -2246.838 347.106 -2242.784 347.106 Z M -2523.719 529.89 L -2579.848 529.89 L -2579.848 63.474 L -2661.87 63.474 L -2661.87 -8.259 L -2523.719 -8.259 Z M -2607.94 99.315 L -2607.94 529.89 L -2661.87 529.89 L -2661.87 168.291 L -2723.497 168.291 L -2723.497 99.315 Z" fill="#fff" style=""/>
      </g>
    </g>
  </g>
  <g id="g10" transform="matrix(1.337313, 0, 0, -1.50863, 62.425049, 1116.767334)" style="">
    <g id="g12" transform="matrix(5.8427196,0,0,5.8427196,-1583.8366,-2391.086)">
      <g id="g14" clip-path="url(#clipPath18)" transform="matrix(1, 0, 0, 1, -0.777641, -2.073709)">
        <g id="g20" transform="translate(296.8092,497.8276)"/>
        <g id="g24" transform="translate(319.8388,524.1243)"/>
      </g>
    </g>
  </g>
</svg>