<?xml version="1.0" encoding="utf-8"?>
<svg viewBox="0 0 500 500" xmlns="http://www.w3.org/2000/svg">
  <g>
    <g transform="matrix(0.054978, 0, 0, -0.056349, 24.888723, 486.999664)" fill="#000000" stroke="none" style="">
      <path d="M3423 7825 c-129 -35 -246 -128 -305 -241 l-33 -64 -911 0 c-564 0 -932 -4 -965 -10 -183 -34 -344 -195 -379 -379 -7 -36 -10 -1006 -10 -2900 0 -3137 -5 -2898 61 -3022 38 -70 126 -157 197 -193 115 -58 50 -56 1474 -56 l1308 0 2 1908 3 1907 28 90 c91 291 320 498 619 559 67 14 189 16 913 16 l835 0 0 828 c0 899 1 881 -56 994 -36 71 -123 159 -193 197 -119 63 -84 61 -1096 61 l-920 0 -33 64 c-99 191 -334 296 -539 241z m205 -332 c50 -38 67 -70 67 -132 0 -47 -5 -64 -27 -93 -70 -92 -192 -89 -262 6 -32 43 -29 132 6 178 15 19 42 42 60 52 42 21 120 16 156 -11z m-510 -357 c78 -151 252 -256 422 -256 170 0 344 105 422 256 l33 64 413 0 412 0 0 -264 c0 -215 -3 -273 -16 -314 -25 -76 -79 -140 -154 -181 l-65 -36 -1045 0 -1045 0 -63 34 c-69 37 -109 79 -144 151 -22 43 -23 58 -26 328 l-3 282 413 0 413 0 33 -64z m-538 -2016 l0 -480 160 0 160 0 0 320 0 320 160 0 160 0 0 -320 0 -320 160 0 160 0 0 -160 0 -160 -1120 0 -1120 0 0 160 0 160 160 0 160 0 0 240 0 240 160 0 160 0 0 -240 0 -240 160 0 160 0 0 480 0 480 160 0 160 0 0 -480z m69 -1470 c207 -51 405 -181 533 -350 68 -88 143 -246 170 -355 31 -128 32 -324 0 -449 -88 -350 -359 -621 -708 -708 -127 -31 -323 -31 -449 0 -109 27 -267 103 -355 170 -170 129 -299 326 -352 538 -31 127 -32 324 0 448 92 366 372 635 745 716 117 25 290 21 416 -10z" style="fill: rgb(91, 91, 91);"/>
      <path d="M4541 5104 c-175 -47 -318 -198 -351 -373 -7 -35 -10 -699 -10 -1940 0 -2057 -3 -1936 56 -2053 36 -71 123 -159 193 -197 122 -65 25 -61 1671 -61 1646 0 1549 -4 1671 61 70 38 157 126 193 197 59 117 56 -4 56 2053 0 1241 -3 1905 -10 1940 -34 177 -177 327 -355 374 -87 22 -3030 22 -3114 -1z m2746 -640 c19 -9 46 -33 61 -52 l27 -35 0 -377 0 -377 -29 -37 c-53 -71 29 -67 -1260 -64 -1159 3 -1165 3 -1192 24 -15 11 -37 33 -48 48 -20 27 -21 39 -21 405 l0 378 27 35 c55 73 -37 68 1246 68 1049 0 1157 -1 1189 -16z m-1923 -1278 c18 -8 46 -31 62 -52 29 -37 29 -39 29 -174 0 -135 0 -137 -29 -174 -46 -60 -70 -66 -286 -66 -216 0 -240 6 -286 66 -29 37 -29 39 -29 174 0 135 0 137 29 174 46 60 67 65 284 66 143 0 201 -4 226 -14z m963 -2 c19 -9 46 -33 61 -52 26 -34 27 -39 27 -172 0 -133 -1 -138 -27 -172 -47 -62 -72 -68 -288 -68 -216 0 -241 6 -288 68 -26 34 -27 39 -27 172 0 133 1 138 27 172 48 62 70 68 286 68 159 0 200 -3 229 -16z m957 2 c18 -8 46 -31 62 -52 29 -37 29 -39 29 -174 0 -135 0 -137 -29 -174 -46 -60 -70 -66 -286 -66 -216 0 -240 6 -286 66 -29 37 -29 39 -29 174 0 135 0 137 29 174 46 60 67 65 284 66 143 0 201 -4 226 -14z m-1920 -800 c18 -8 46 -31 62 -52 29 -37 29 -39 29 -174 0 -135 0 -137 -29 -174 -46 -60 -70 -66 -286 -66 -216 0 -240 6 -286 66 -29 37 -29 39 -29 174 0 135 0 137 29 174 46 60 67 65 284 66 143 0 201 -4 226 -14z m963 -2 c19 -9 46 -33 61 -52 26 -34 27 -39 27 -172 0 -133 -1 -138 -27 -172 -47 -62 -72 -68 -288 -68 -216 0 -241 6 -288 68 -26 34 -27 39 -27 172 0 133 1 138 27 172 48 62 70 68 286 68 159 0 200 -3 229 -16z m957 2 c18 -8 46 -31 62 -52 29 -37 29 -39 29 -174 0 -135 0 -137 -29 -174 -46 -60 -70 -66 -286 -66 -216 0 -240 6 -286 66 -29 37 -29 39 -29 174 0 135 0 137 29 174 46 60 67 65 284 66 143 0 201 -4 226 -14z m-1920 -800 c18 -8 46 -31 62 -52 29 -37 29 -39 29 -174 0 -135 0 -137 -29 -174 -46 -60 -70 -66 -286 -66 -216 0 -240 6 -286 66 -29 37 -29 39 -29 174 0 135 0 137 29 174 46 60 67 65 284 66 143 0 201 -4 226 -14z m963 -2 c19 -9 46 -33 61 -52 26 -34 27 -39 27 -172 0 -133 -1 -138 -27 -172 -47 -62 -72 -68 -288 -68 -216 0 -241 6 -288 68 -26 34 -27 39 -27 172 0 133 1 138 27 172 48 62 70 68 286 68 159 0 200 -3 229 -16z m957 2 c18 -8 46 -31 62 -52 29 -37 29 -39 29 -174 0 -135 0 -137 -29 -174 -46 -60 -70 -66 -286 -66 -216 0 -240 6 -286 66 -29 37 -29 39 -29 174 0 135 0 137 29 174 46 60 67 65 284 66 143 0 201 -4 226 -14z" style="fill: rgb(140, 140, 140);"/>
      <g transform="matrix(1.818909, 0, 0, 1.774654, 8540.131836, 383.092651)" fill="#000000" stroke="none">
        <g transform="matrix(1, 0, 0, 1, -855.661499, -1254.453369)" fill="#000000" stroke="none">
          <g transform="matrix(5.685192, 0, 0, -5.019597, 1078.718506, 1819.5354)" style="">
            <path class="accent" d="M -636.242 -217.832 L -632.664 -217.945 L -632.664 -146.099 L -570.773 -146.099 L -570.773 -142.507 C -570.87 -134.986 -573.771 -122.75 -577.736 -113.545 C -587.406 -91.093 -607.424 -76.05 -629.182 -74.591 C -669.798 -72.009 -701.517 -115.004 -693.104 -161.142 C -689.429 -181.573 -676.761 -200.545 -660.708 -209.862 C -656.163 -212.444 -649.684 -215.363 -646.202 -216.261 C -642.721 -217.047 -638.273 -217.832 -636.242 -217.832 Z" fill="#fff" style=""/>
          </g>
        </g>
      </g>
    </g>
  </g>
</svg>