<?xml version="1.0" encoding="utf-8"?>
<svg version="1.1" x="0px" y="0px" viewBox="0 0 50 47.1" style="enable-background:new 0 0 50 47.1;" xmlns="http://www.w3.org/2000/svg" xmlns:bx="https://boxy-svg.com">
  <g transform="matrix(1, 0, 0, 1, 0.058803, -0.117602)">
    <path fill="#4D4D4D" d="M 47.433 45.633 L 47.374 35.5 C 46.174 35.5 45.429 35.66 43.312 35.802 L 43.208 45.658 C 43.208 46.858 47.291 46.633 47.433 45.633 Z" transform="matrix(0.887039, -0.461695, 0.461695, 0.887039, -13.788064, 25.550302)"/>
    <path fill="#fff" class="accent" d="M 9.566 12.806 L 9.817 28.77 L 9.293 28.664 L 9.306 19.557 C 8.04 18.689 6.866 18.883 5.371 19.642 C 5.371 19.642 5.665 25.615 5.508 28.874 L 27.145 28.449 C 26.62 13.23 27.099 28.428 26.685 13.112 C 26.652 11.846 22.536 12.031 22.734 13.221 C 22.805 13.65 23.128 28.501 23.198 28.456 C 23.303 28.388 22.726 28.485 22.724 28.422 C 22.126 10.466 22.979 28.699 22.345 10.628 C 22.301 9.361 18.053 9.589 18.073 10.622 C 18.418 28.532 17.966 9.773 18.447 28.486 C 18.448 28.533 18.072 28.419 18.072 28.408 C 18.057 27.519 17.719 7.96 17.677 7.933 C 15.394 6.441 13.891 8.08 13.892 8.14 C 13.907 9.031 14.535 28.48 14.162 28.445 C 13.123 28.349 13.932 28.463 13.853 28.384 C 13.747 28.28 13.754 12.648 13.506 12.528 C 11.034 11.334 9.566 13.016 9.566 12.806 Z" style=""/>
    <path fill="#8C8C8C" d="M 28.321 33.024 L 4.1 33.2 C 3.7 33.2 3.4 32.9 3.4 32.5 L 3.4 4.1 C 3.4 3.7 3.7 3.4 4.1 3.4 L 45.9 3.4 C 46.3 3.4 46.6 3.7 46.6 4.1 L 46.658 20.415 C 47.858 20.515 49.177 26.029 50.077 26.729 L 49.9 4.1 C 50 1.8 48.2 0 45.9 0 L 4.1 0 C 1.8 0 0 1.8 0 4.1 L 0 32.5 C 0 34.8 1.8 36.6 4.1 36.6 L 24.228 36.315 L 18.435 42.915 L 32.132 42.647 L 26.242 36.299 L 30.213 36.188 L 28.321 33.024 Z"/>
    <path style="fill: rgb(216, 216, 216); stroke: rgb(0, 0, 0);"/>
    <path d="M 733 538 m -11.527 0 a 11.527 11.527 0 1 0 23.054 0 a 11.527 11.527 0 1 0 -23.054 0 Z M 733 538 m -8.435 0 a 8.435 8.435 0 0 1 16.87 0 a 8.435 8.435 0 0 1 -16.87 0 Z" style="fill: rgb(77, 77, 77);" transform="matrix(0.283155, -0.959074, 0.959074, 0.283155, -684.902143, 578.888568)" bx:shape="ring 733 538 8.435 8.435 11.527 11.527 1@cb0b23ae"/>
  </g>
</svg>