<?xml version="1.0" encoding="utf-8"?>
<svg viewBox="0 0 500 500" xmlns="http://www.w3.org/2000/svg">
  <g>
    <g>
      <g transform="matrix(0.08251, 0, 0, -0.080475, -27.453716, 602.206238)" fill="#000000" stroke="none" style="">
        <path d="M 4587.305 6483.994 C 3673.754 6389.638 3161.062 6205.176 3034.267 5924.658 C 3003.553 5857.504 2999.615 5751.247 3024.029 5667.941 C 3069.707 5514.081 3229.578 5310.068 3396.538 5191.911 C 3535.146 5092.454 3661.94 5031.25 4051.775 4870.59 C 4177.782 4819.587 4306.152 4766.033 4338.441 4751.582 L 4396.719 4725.231 L 4863.733 4725.231 L 5331.535 4725.231 L 5333.11 3742.567 L 5335.472 2759.904 L 5402.414 2812.607 C 5515.82 2903.563 5606.388 2988.569 5725.307 3117.777 C 6324.628 3768.069 6412.046 4417.511 5945.032 4744.782 C 5715.856 4905.442 5400.839 5022.75 4642.433 5231.013 C 4095.877 5381.473 3922.618 5439.277 3743.845 5533.633 C 3591.061 5613.538 3496.556 5721.495 3496.556 5815.001 C 3497.344 5968.861 3708.406 6115.07 4134.467 6257.879 C 4382.544 6341.185 4636.92 6403.239 5091.334 6492.494 C 5169.301 6507.795 4747.964 6500.995 4587.305 6483.994 Z" style="fill: rgb(91, 91, 91);"/>
        <path d="M 574.766 3552.155 L 574.766 2438.583 L 629.894 2438.583 L 685.022 2438.583 L 685.022 3552.155 L 685.022 4665.727 L 629.894 4665.727 L 574.766 4665.727 L 574.766 3552.155 Z" style="fill: rgb(140, 140, 140);"/>
        <path d="M 5170.088 4655.526 C 5167.725 4649.576 5166.938 4148.893 5167.725 3543.654 L 5170.088 2442.833 L 5223.641 2440.283 L 5276.407 2437.733 L 5276.407 3552.155 L 5276.407 4665.727 L 5225.216 4665.727 C 5191.352 4665.727 5172.451 4662.326 5170.088 4655.526 Z" style="fill: rgb(140, 140, 140);"/>
        <path d="M 3496.556 3292.038 C 3437.49 3263.986 3009.854 3099.926 2827.143 3035.322 C 2298.701 2847.459 1680.478 2657.897 1134.71 2514.238 C 1011.066 2481.936 899.234 2452.184 885.846 2447.934 C 871.67 2443.683 1680.478 2440.283 2835.019 2439.433 L 4807.818 2439.433 L 4886.572 2479.386 C 4929.887 2501.487 4998.403 2538.04 5038.568 2560.991 L 5111.022 2603.494 L 5111.022 2954.566 L 5111.022 3305.639 L 4317.965 3305.639 C 3622.563 3304.789 3520.97 3303.089 3496.556 3292.038 Z" style="fill: rgb(91, 91, 91);"/>
        <g transform="matrix(0.954483, 0, 0, 1.056297, -4870.960937, 2871.156982)" fill="#000000" stroke="none" style="">
          <g transform="matrix(1, 0, 0, 1, 5056.523438, -1209.390991)" fill="#000000" stroke="none">
            <g transform="matrix(22.418344, 0, 0, -7.423501, -7266.273926, 2438.299561)" style="">
              <path class="accent" d="M 361.083 -64.635 L 565.616 -64.635 L 565.616 104.302 L 361.083 104.302 Z" fill="#fff" style=""/>
            </g>
          </g>
        </g>
      </g>
    </g>
  </g>
</svg>