<?xml version="1.0" encoding="utf-8"?>
<svg viewBox="0 0 500 500" xmlns="http://www.w3.org/2000/svg">
  <g transform="matrix(0.1, 0, 0, -0.1, -376.171295, 385.250183)" fill="#000000" stroke="none">
    <g transform="matrix(1, 0, 0, 1, -4263.359863, -1232.748291)" fill="#000000" stroke="none">
      <g transform="matrix(12.061628, 0, 0, -7.588323, 4292.313477, 2060.489258)" style="">
        <path class="accent" d="M 475.062 -145.538 C 578.447 -145.274 578.862 -145.274 581.1 -142.507 C 582.344 -141.057 584.168 -138.158 585.08 -136.181 C 586.821 -132.623 586.821 -131.042 587.07 -45.647 L 587.236 41.46 L 585.412 46.6 C 584.251 49.894 582.344 52.662 580.188 54.375 C 576.789 57.01 575.463 57.01 472.574 56.747 C 368.94 56.351 368.443 56.351 366.204 53.584 C 364.96 52.134 363.136 49.235 362.224 47.258 C 360.483 43.7 360.483 42.119 360.235 -38.268 C 360.069 -83.337 360.152 -123.398 360.483 -127.22 C 361.147 -135.391 364.546 -142.639 368.691 -144.483 C 370.184 -145.274 413.876 -145.67 475.062 -145.538 Z" fill="#fff" style=""/>
      </g>
    </g>
  </g>
  <g transform="matrix(0.1, 0, 0, -0.1, -91.61982, 567.148987)" fill="#000000" stroke="none">
    <path d="M 4680 4250 L 4677 4960 L 3056 4960 L 1434 4960 L 1244 4819 C 1010 4644 1010 4644 1010 4605 C 1010 4565 1031 4545 1252 4381 L 1429 4250 L 1657 4248 L 1885 4245 L 1888 4033 L 1890 3820 L 2000 3820 L 2110 3820 L 2112 4033 L 2115 4245 L 2920 4245 L 3725 4245 L 3728 4033 L 3730 3820 L 3840 3820 L 3950 3820 L 3950 4029 C 3950 4210 3952 4239 3966 4244 C 3975 4247 4139 4250 4331 4250 L 4680 4250 Z" style="fill: rgb(140, 140, 140);"/>
  </g>
  <g transform="matrix(0.1, 0, 0, -0.1, -93.974266, 566.737305)" fill="#000000" stroke="none">
    <path d="M 5004 5576 C 4993 5568 4930 5482 4864 5386 C 4679 5113 4687 5129 4682 5039 L 4677 4960 L 4680 4250 L 4682 2544 L 4685 838 L 4714 814 L 4742 789 L 5052 792 L 5362 795 L 5381 819 C 5400 842 5400 890 5400 2980 L 5400 5118 L 5260 5326 C 5183 5441 5108 5547 5094 5563 C 5065 5593 5035 5597 5004 5576 Z" style="fill: rgb(91, 91, 91);"/>
  </g>
</svg>