<?xml version="1.0" encoding="utf-8"?>
<svg viewBox="0 0 500 500" xmlns="http://www.w3.org/2000/svg" xmlns:bx="https://boxy-svg.com">
  <g transform="matrix(0.1, 0, 0, -0.1, 1478.506348, 423.332092)" fill="#000000" stroke="none"/>
  <g transform="matrix(0.1, 0, 0, -0.1, 1099.410767, 647.195435)" fill="#000000" stroke="none">
    <g transform="matrix(1.823096, 0, 0, 1.977961, 7864.383789, -720.193787)" fill="#000000" stroke="none" style=""/>
    <g transform="matrix(4.952111, 0, 0, 4.834711, 7907.776855, -11378.355469)" fill="#000000" stroke="none" style="" bx:origin="0.543 0.498"/>
    <g style="" transform="matrix(1.20031, 0, 0, -1.32518, -10429.320312, 6514.401367)">
      <path class="fil0" d="M 854.256 985.551 L 854.256 374.876 L 2366.507 365.326 L 2376.944 997.031 L 2150.019 1002.272 C 2147.302 993.174 2142.084 984.059 2135.736 978.705 C 2133.198 976.565 2129.994 974.671 2126.268 972.999 L 2121.262 659.109 L 1125.237 654.334 L 1125.237 980.823 C 1123.24 979.985 1121.745 979.856 1120.875 981.075 C 1118.927 983.806 1119.642 993.506 1122.593 1004.096 L 854.256 985.551 Z M 1670.927 1003.122 L 1741.626 1002.997 C 1719.012 1003.724 1694.557 1003.729 1670.927 1003.122 Z" id="path-2" style="fill: rgb(140, 140, 140);"/>
      <g transform="matrix(100.932068, 0, 0, -121.910172, 2247.864502, 310.125122)" style="">
        <path fill="#fff" class="accent" d="M 4.57 -7.357 L 6.949 -7.357 L -2.91 -15.681 L -8.903 -10.622 L -22.315 -19.834 L -22.173 -23.33 L -8.903 -14.201 L -2.91 -19.255 L 9.062 -9.141 L 9.062 -11.149 L 12.058 -11.149 L 12.058 -4.828 L 4.57 -4.828 L 4.57 -7.357 Z" style=""/>
        <path style="fill: rgb(216, 216, 216); stroke: rgb(0, 0, 0);"/>
      </g>
      <path class="fil0" d="M 67.346 3030.545 L 65.217 2689.387 L 65.217 1193.856 L 2382.33 1168.073 L 2375.29 902.251 L 997.218 902.433 L 65.217 911.027 C -107.852 911.027 -248.565 1037.859 -248.565 1193.856 L -248.565 3030.545 C -248.565 3186.541 -107.852 3313.373 65.217 3313.373 L 3200.036 3313.373 C 3373.106 3313.373 3513.819 3186.541 3513.819 3030.545 L 3513.819 1899.909 L 3200.036 1899.909 L 3200.036 3030.545 L 67.346 3030.545 Z" id="Слой_x0020_1" style="fill: rgb(77, 77, 77);"/>
    </g>
  </g>
</svg>