<?xml version="1.0" encoding="utf-8"?>
<svg viewBox="0 0 500 500" xmlns="http://www.w3.org/2000/svg">
  <g style="" transform="matrix(0.108235, 0, 0, 0.117654, 62.798962, 48.158195)">
    <path class="fil0" d="M 67.346 3039.044 L 65.217 2697.886 L 65.217 1202.355 L 2382.33 1176.572 L 2364.909 944.175 L 997.218 910.932 L 65.217 919.526 C -107.852 919.526 -248.565 1046.358 -248.565 1202.355 L -248.565 3039.044 C -248.565 3195.04 -107.852 3321.872 65.217 3321.872 L 3200.036 3321.872 C 3373.106 3321.872 3513.819 3195.04 3513.819 3039.044 L 3513.819 1908.408 L 3200.036 1908.408 L 3200.036 3039.044 L 67.346 3039.044 Z" id="Слой_x0020_1" style="fill: rgb(77, 77, 77);"/>
    <path class="fil0" d="M 911.429 705.835 L 1953.429 705.835 L 1953.429 913.835 C 2015.494 913.835 911.429 913.835 911.429 913.835 L 911.429 705.835 Z M 2356.701 939.619 L 2370.429 288.835 L 495.429 288.835 L 495.429 913.835 L 2356.701 939.619 Z" id="path-2" style="fill: rgb(140, 140, 140);"/>
    <g transform="matrix(100.932068, 0, 0, -121.910172, 2081.557861, 395.120239)" style="">
      <path fill="#fff" class="accent" d="M 5.701 -5.712 L 8.08 -5.712 L -1.779 -14.036 L -7.772 -8.977 L -19.744 -19.09 L -19.859 -21.607 L -7.772 -12.556 L -1.779 -17.61 L 10.193 -7.496 L 10.193 -9.504 L 13.189 -9.504 L 13.189 -3.183 L 5.701 -3.183 Z" style=""/>
      <path style="fill: rgb(216, 216, 216); stroke: rgb(0, 0, 0);"/>
    </g>
  </g>
</svg>