<?xml version="1.0" encoding="utf-8"?>
<svg viewBox="0 0 500 500" xmlns="http://www.w3.org/2000/svg">
  <g transform="matrix(0.181814, 0, 0, -0.094612, -235.513809, 349.126221)" fill="#000000" stroke="none" style="">
    <g transform="matrix(1, 0, 0, 1, -855.661499, -1254.453369)" fill="#000000" stroke="none">
      <g transform="matrix(5.685192, 0, 0, -5.019597, 1068.394897, 1779.859009)" style="">
        <path class="accent" d="M 552.443 -92.473 C 559.155 -65.977 571.431 -16.969 575.14 -1.629 L 578.496 12.117 L 584.06 -10.594 C 587.151 -22.946 593.775 -50.239 598.897 -70.957 C 604.02 -91.875 609.142 -110.403 610.378 -112.594 C 613.293 -117.575 617.267 -115.383 619.21 -108.012 C 620.535 -102.832 620.711 -92.672 620.711 -3.422 L 620.711 95.59 L 618.503 100.371 C 615.766 106.746 611.968 106.945 609.407 100.77 C 607.552 96.188 607.464 94.793 607.287 26.859 L 607.022 -42.668 L 599.162 -9.996 C 589.536 29.848 584.59 49.371 582.912 53.953 C 580.793 59.531 576.2 58.535 573.727 51.961 C 572.579 48.973 566.927 27.058 561.098 3.152 L 550.5 -40.078 L 550.059 28.453 C 549.617 92.203 549.529 97.184 547.939 101.168 C 545.731 106.746 541.492 106.547 538.843 100.969 L 536.811 96.785 L 536.811 -107.614 L 539.108 -111.598 C 543.877 -119.965 546.438 -116.18 552.443 -92.473 Z" fill="#fff" style=""/>
      </g>
      <g transform="matrix(0.843894, 0, 0, 1, 1431.436279, 1211.432129)" fill="#000000" stroke="none" style="">
        <g transform="matrix(1, 0, 0, 1, -855.661499, -1254.453369)" fill="#000000" stroke="none">
          <g transform="matrix(5.685192, 0, 0, -5.019597, 1068.394897, 1779.859009)" style="">
            <path class="accent" d="M 475.407 -119.97 C 488.907 -111.204 499.058 -91.481 503.14 -65.981 C 504.814 -56.02 504.709 -33.508 503.035 -22.551 C 500.419 -5.02 491.419 15.898 483.36 24.066 C 481.581 25.66 480.116 27.851 480.116 28.648 C 480.116 29.445 485.139 39.406 491.209 50.761 C 497.279 62.316 503.035 73.671 503.872 76.062 C 506.802 84.828 502.93 96.781 497.07 96.781 C 493.721 96.781 491.732 93.593 474.779 61.519 C 457.302 28.648 456.046 25.859 456.046 19.085 C 456.046 9.124 458.558 5.539 466.616 2.949 C 480.325 -1.235 488.593 -18.965 488.593 -44.665 C 488.698 -64.587 483.151 -80.923 473.837 -89.091 C 469.965 -92.278 466.197 -93.274 453.744 -94.071 L 438.255 -95.067 L 438.255 -5.618 C 438.255 89.609 438.15 91.402 433.127 95.984 C 430.197 98.773 425.069 96.183 423.708 91.004 C 423.185 89.211 422.557 42.195 422.453 -13.387 C 422.243 -107.618 422.348 -114.591 424.022 -118.177 C 425.069 -120.368 426.953 -122.559 428.208 -123.157 C 433.127 -125.149 471.221 -122.759 475.407 -119.97 Z" fill="#fff" style=""/>
          </g>
          <g transform="matrix(0.594969, 0, 0, 1, 1460.352173, 1185.088257)" fill="#000000" stroke="none">
            <g transform="matrix(1, 0, 0, 1, -855.661499, -1254.453369)" fill="#000000" stroke="none">
              <g transform="matrix(5.685192, 0, 0, -5.019597, 1068.394897, 1779.859009)" style="">
                <path class="accent" d="M 481.286 -133.191 C 504.328 -126.417 528.777 -106.894 528.777 -95.14 C 528.777 -79.202 516.113 -75.417 503.097 -87.37 C 498.875 -91.355 490.96 -96.933 485.331 -99.921 C 476.185 -104.702 473.019 -105.3 456.66 -105.3 C 439.598 -105.3 437.312 -104.902 426.758 -99.124 C 407.937 -89.163 392.986 -69.241 388.413 -47.925 C 384.015 -28.401 386.654 -1.308 394.393 12.638 C 409.52 39.732 430.276 53.478 456.66 53.478 C 475.305 53.478 488.673 47.899 505.032 33.157 C 516.465 22.997 528.777 26.583 528.777 40.329 C 528.777 52.681 511.188 69.017 487.794 78.38 C 477.24 82.564 471.963 83.361 456.66 83.361 C 427.813 83.361 408.289 74.196 387.885 51.286 C 373.462 34.95 365.019 17.817 360.797 -3.499 C 358.686 -14.456 359.742 -45.335 362.732 -56.491 C 372.054 -92.749 398.087 -122.234 429.396 -132.394 C 442.764 -136.777 467.742 -137.175 481.286 -133.191 Z" fill="#fff" style=""/>
              </g>
            </g>
          </g>
        </g>
      </g>
    </g>
  </g>
  <g transform="matrix(0.091287, 0, 0, -0.094612, 21.188185, 516.912415)" fill="#000000" stroke="none" style="">
    <path d="M875 4390 l-580 -5 -58 -27 c-117 -55 -205 -167 -228 -293 -8 -44 -10 -466 -6 -1540 6 -1611 2 -1521 62 -1614 34 -55 100 -118 150 -143 97 -50 29 -48 1765 -46 894 1 1900 5 2236 8 l610 5 66 34 c119 60 195 160 219 286 8 44 10 466 6 1540 -6 1611 -2 1521 -62 1614 -33 54 -100 118 -145 141 -105 54 -6 51 -1800 48 -910 -2 -1916 -5 -2235 -8z m3946 -163 c93 -46 138 -124 139 -234 l0 -73 -89 0 c-49 0 -97 -3 -106 -6 -26 -10 -45 -63 -34 -93 17 -43 37 -50 141 -51 l97 0 -2 -1357 -2 -1358 -22 -41 c-28 -53 -91 -107 -140 -122 -27 -8 -545 -13 -1739 -18 l-1701 -7 -6 939 c-4 516 -7 1167 -7 1445 l0 507 368 4 c202 2 911 5 1577 7 l1210 2 22 21 c31 29 30 78 -2 108 l-25 23 -2176 -7 -2177 -6 5 77 c7 114 47 181 138 229 33 18 80 19 875 24 462 3 1465 5 2230 5 1317 0 1392 -1 1426 -18z m-3621 -1184 c0 -395 3 -1046 7 -1446 l6 -728 -439 3 c-399 3 -442 5 -475 21 -51 26 -99 75 -122 127 -20 44 -21 65 -25 1393 l-5 1347 527 0 526 0 0 -717z" style="fill: rgb(91, 91, 91);"/>
    <path d="M341 4124 c-42 -54 -13 -118 54 -118 68 0 100 77 52 122 -33 31 -80 29 -106 -4z" style="fill: rgb(140, 140, 140);"/>
    <path d="M581 4124 c-34 -43 -26 -86 20 -110 35 -18 74 -10 94 19 53 76 -57 163 -114 91z" style="fill: rgb(140, 140, 140);"/>
    <path d="M821 4124 c-34 -43 -26 -86 20 -110 35 -18 74 -10 94 19 53 76 -57 163 -114 91z" style="fill: rgb(140, 140, 140);"/>
    <path d="M345 3565 c-28 -27 -30 -42 -14 -79 20 -44 45 -47 363 -44 l298 3 19 24 c26 32 24 73 -4 99 -23 22 -29 22 -331 22 l-307 0 -24 -25z" style="fill: rgb(140, 140, 140);"/>
    <path d="M357 3259 c-48 -28 -40 -107 12 -129 19 -7 120 -10 323 -8 275 3 297 4 317 22 29 26 28 76 -2 104 -23 22 -29 22 -328 22 -194 0 -311 -4 -322 -11z" style="fill: rgb(140, 140, 140);"/>
    <path d="M357 2939 c-48 -28 -40 -107 12 -129 19 -7 120 -10 323 -8 275 3 297 4 317 22 29 26 28 76 -2 104 -23 22 -29 22 -328 22 -194 0 -311 -4 -322 -11z" style="fill: rgb(140, 140, 140);"/>
    <path d="M357 2619 c-46 -27 -39 -108 12 -129 19 -7 86 -10 204 -8 155 3 177 5 196 22 29 26 28 76 -2 104 -22 21 -32 22 -208 22 -110 0 -191 -5 -202 -11z" style="fill: rgb(140, 140, 140);"/>
    <path d="M351 2292 c-33 -26 -31 -79 3 -109 26 -22 33 -23 205 -23 165 0 180 2 205 21 34 27 36 77 3 107 -22 21 -32 22 -209 22 -162 0 -189 -2 -207 -18z" style="fill: rgb(140, 140, 140);"/>
    <path d="M352 1970 c-33 -31 -33 -72 1 -107 29 -32 132 -33 171 -2 34 27 36 77 3 107 -33 31 -143 32 -175 2z" style="fill: rgb(140, 140, 140);"/>
  </g>
</svg>