<?xml version="1.0" encoding="utf-8"?>
<svg viewBox="0 0 500 500" xmlns="http://www.w3.org/2000/svg">
  <g transform="matrix(0.093205, 0, 0, -0.093731, 20.013025, 486.467957)" fill="#000000" stroke="none" style=""/>
  <g transform="matrix(0.265882, 0, 0, -0.255375, -42.82283, 526.129944)" fill="#000000" stroke="none" style="">
    <g transform="matrix(-0.376107, 0.00013, -0.000188, -0.591108, 4115.216309, 1701.885132)" fill="#000000" stroke="none" style="">
      <g transform="matrix(1, 0, 0, 1, -855.661499, -1254.453369)" fill="#000000" stroke="none">
        <g transform="matrix(12.938353, 0, 0, -9.470533, 2781.181641, 2455.471924)" style="">
          <path class="accent" d="M 459.058 37.932 C 496.87 37.932 497.897 38.825 497.897 70.979 C 497.897 103.133 496.87 104.026 459.058 104.026 C 434.192 104.026 433.987 104.026 428.027 98.846 C 422.068 93.665 422.068 93.665 422.068 70.979 C 422.068 48.293 422.068 48.293 428.027 43.112 C 433.987 37.932 434.192 37.932 459.058 37.932 Z" fill="#fff" style="" transform="matrix(-0.000088, 0.905023, -1.104944, -0.000088, 538.450811, -345.309525)"/>
        </g>
      </g>
    </g>
    <path d="M 392.72 340.302 L 392.72 250.302 L 532.719 250.302 L 672.719 250.302 L 672.719 340.302 L 672.719 430.302 L 532.719 430.302 L 392.72 430.302 L 392.72 340.302 Z" style="fill: rgb(91, 91, 91);" transform="matrix(0.000419, 1.041143, -0.960482, 0.000419, 859.350134, -214.478066)"/>
    <path d="M 113.195 1516.794 L 113.195 1426.794 L 533.194 1426.794 L 953.194 1426.794 L 953.194 1516.794 L 953.194 1606.794 L 533.194 1606.794 L 113.195 1606.794 L 113.195 1516.794 Z" style="fill: rgb(140, 140, 140);" transform="matrix(0.000419, 1.041143, -0.960482, 0.000419, 1989.824758, 961.025854)"/>
    <path d="M 741.954 631.549 L 741.954 536.548 L 1161.953 536.548 L 1581.953 536.548 L 1581.953 631.549 L 1581.953 726.549 L 1161.953 726.549 L 741.954 726.549 L 741.954 631.549 Z" style="fill: rgb(91, 91, 91);" transform="matrix(0.000419, 1.041143, -0.960482, 0.000419, 1768.057323, -578.476485)"/>
    <path d="M 1022.429 1808.04 L 1022.429 1713.04 L 1162.429 1713.04 L 1302.429 1713.04 L 1302.429 1808.04 L 1302.429 1903.04 L 1162.429 1903.04 L 1022.429 1903.04 L 1022.429 1808.04 Z" style="fill: rgb(140, 140, 140);" transform="matrix(0.000419, 1.041143, -0.960482, 0.000419, 2898.532077, 597.026506)"/>
    <path d="M 1511.011 485.514 L 1511.011 395.514 L 1791.011 395.514 L 2071.011 395.514 L 2071.011 485.514 L 2071.011 575.514 L 1791.011 575.514 L 1511.011 575.514 L 1511.011 485.514 Z" style="fill: rgb(91, 91, 91);" transform="matrix(0.000419, 1.041143, -0.960482, 0.000419, 2256.587378, -1379.388711)"/>
    <path d="M 1511.486 1662.005 L 1511.486 1572.005 L 1791.485 1572.005 L 2071.485 1572.005 L 2071.485 1662.005 L 2071.485 1752.005 L 1791.485 1752.005 L 1511.486 1752.005 L 1511.486 1662.005 Z" style="fill: rgb(140, 140, 140);" transform="matrix(0.000419, 1.041143, -0.960482, 0.000419, 3387.060674, -203.885268)"/>
    <g transform="matrix(0.000158, 0.391581, -0.567748, 0.000248, 1184.950562, -2568.020264)" fill="#000000" stroke="none" style="">
      <g transform="matrix(1, 0, 0, 1, -855.661499, -1254.453369)" fill="#000000" stroke="none">
        <g transform="matrix(12.938353, 0, 0, -9.470533, 2781.181641, 2455.471924)" style="">
          <path class="accent" d="M 517.296 -29.477 C 555.108 -29.477 556.135 -28.584 556.135 3.57 C 556.135 35.724 555.108 36.617 517.296 36.617 C 492.43 36.617 492.225 36.617 486.265 31.437 C 480.306 26.256 480.306 26.256 480.306 3.57 C 480.306 -19.116 480.306 -19.116 486.265 -24.297 C 492.225 -29.477 492.43 -29.477 517.296 -29.477 Z" fill="#fff" style=""/>
        </g>
      </g>
    </g>
    <g transform="matrix(0.000158, 0.391581, -0.567748, 0.000248, 2435.437744, -2311.543945)" fill="#000000" stroke="none" style="">
      <g transform="matrix(1, 0, 0, 1, -855.661499, -1254.453369)" fill="#000000" stroke="none">
        <g transform="matrix(12.938353, 0, 0, -9.470533, 2781.181641, 2455.471924)" style="">
          <path class="accent" d="M 517.296 -29.477 C 555.108 -29.477 556.135 -28.584 556.135 3.57 C 556.135 35.724 555.108 36.617 517.296 36.617 C 492.43 36.617 492.225 36.617 486.265 31.437 C 480.306 26.256 480.306 26.256 480.306 3.57 C 480.306 -19.116 480.306 -19.116 486.265 -24.297 C 492.225 -29.477 492.43 -29.477 517.296 -29.477 Z" fill="#fff" style=""/>
        </g>
      </g>
    </g>
    <g transform="matrix(0.376107, 0, 0, 0.391581, -2074.047607, 713.229187)" fill="#000000" stroke="none"/>
  </g>
</svg>