<?xml version="1.0" encoding="utf-8"?>
<svg viewBox="0 0 500 500" xmlns="http://www.w3.org/2000/svg" xmlns:bx="https://boxy-svg.com">
  <g transform="matrix(0.129972, 0, 0, -0.138612, 974.937805, 543.883789)" fill="#000000" stroke="none" style=""/>
  <g transform="matrix(-23.603779, 1.282581, 0.066807, 34.022842, 1742.968994, -1619.394287)" style="">
    <g transform="matrix(1, 0, 0, 1, 13.140225, 2.188287)">
      <path fill="#fff" class="accent" d="M 51.645 46.645 C 51.687 46.668 51.706 46.727 51.705 46.825 L 51.706 46.968 L 51.919 46.991 C 52.533 47.047 52.877 47.335 52.814 47.733 C 52.77 48.029 52.539 48.211 52.031 48.353 L 51.729 48.438 L 51.719 48.852 C 51.715 49.079 51.72 49.265 51.731 49.265 C 51.742 49.264 51.803 49.245 51.858 49.223 C 52.015 49.165 52.145 49.043 52.238 48.87 C 52.283 48.786 52.354 48.699 52.398 48.68 C 52.581 48.586 52.877 48.652 52.926 48.797 C 52.967 48.917 52.845 49.133 52.651 49.285 C 52.465 49.431 52.143 49.561 51.875 49.598 L 51.713 49.619 L 51.714 49.763 C 51.715 49.91 51.659 49.99 51.551 49.994 C 51.46 49.997 51.419 49.936 51.407 49.787 L 51.396 49.641 L 51.183 49.619 C 50.715 49.565 50.359 49.387 50.232 49.142 C 50.149 48.978 50.175 48.704 50.283 48.558 C 50.417 48.376 50.667 48.245 51.051 48.149 L 51.391 48.063 L 51.402 47.699 C 51.408 47.452 51.397 47.336 51.37 47.337 C 51.21 47.343 51.004 47.491 50.926 47.658 C 50.87 47.772 50.818 47.803 50.647 47.83 C 50.535 47.847 50.498 47.838 50.4 47.777 C 50.328 47.73 50.287 47.681 50.287 47.634 C 50.291 47.48 50.552 47.263 50.787 47.172 C 50.85 47.145 51.011 47.049 51.145 47.022 L 51.388 46.973 L 51.399 46.824 C 51.406 46.724 51.432 46.665 51.474 46.641 C 51.551 46.599 51.574 46.6 51.645 46.645 Z M 51.709 47.648 L 51.709 47.997 L 51.847 47.944 C 52.052 47.867 52.15 47.793 52.179 47.695 C 52.204 47.594 52.145 47.455 52.051 47.403 C 51.999 47.373 51.77 47.304 51.714 47.299 C 51.71 47.299 51.707 47.456 51.709 47.648 Z M 51.12 48.596 C 50.911 48.674 50.815 48.779 50.814 48.924 C 50.815 49.105 51.017 49.254 51.313 49.291 L 51.418 49.304 L 51.409 48.916 C 51.4 48.481 51.408 48.491 51.12 48.596 Z" style="" transform="matrix(0.999999, 0.000009, -0.000019, 1.000001, 0.000935, -0.000497)"/>
      <path d="M 54.398 51.865 C 53.914 51.751 53.5 51.644 53.472 51.629 C 53.364 51.566 53.43 51.489 53.746 51.307 L 54.058 51.128 L 53.731 50.863 C 53.264 50.477 51.962 49.57 51.401 49.236 C 49.587 48.149 47.708 47.384 45.806 46.958 C 45.484 46.883 45.038 46.801 44.816 46.773 C 44.595 46.743 44.392 46.708 44.363 46.693 C 44.299 46.656 44.314 46.559 44.387 46.521 C 44.566 46.424 46.115 46.726 47.29 47.087 C 49.617 47.805 52.041 49.111 54.011 50.709 C 54.173 50.839 54.318 50.948 54.336 50.953 C 54.354 50.958 54.509 50.883 54.681 50.786 C 54.852 50.689 55.026 50.609 55.067 50.609 C 55.108 50.609 55.163 50.634 55.19 50.667 C 55.214 50.696 55.295 51.006 55.366 51.352 C 55.492 51.958 55.494 51.983 55.427 52.03 C 55.388 52.057 55.337 52.08 55.315 52.08 C 55.293 52.077 54.878 51.983 54.398 51.865 Z" style="fill: rgb(77, 77, 77);" transform="matrix(-1.001368, 0.037749, -0.0782, -0.995686, 103.716288, 96.486425)"/>
      <path d="M 46.903 53.947 C 46.904 53.935 46.497 53.636 46.005 53.279 L 45.102 52.634 L 45.27 50.398 C 45.417 48.399 45.443 48.16 45.497 48.125 C 45.549 48.09 45.687 48.085 46.434 48.085 C 47.258 48.085 47.31 48.087 47.378 48.135 C 47.449 48.184 47.446 48.217 47.231 51.076 C 47.039 53.628 47.006 53.967 46.957 53.967 C 46.928 53.967 46.902 53.957 46.903 53.947 Z" style="fill: rgb(77, 77, 77);" transform="matrix(-1.001368, 0.037749, -0.0782, -0.995686, 96.575014, 100.085541)"/>
      <path d="M 49.321 53.601 C 49.067 53.457 48.64 53.227 48.374 53.093 L 47.889 52.849 L 47.99 51.351 C 48.094 49.877 48.096 49.85 48.174 49.8 C 48.249 49.753 48.301 49.75 49.126 49.75 C 49.873 49.75 50.01 49.755 50.056 49.79 C 50.106 49.825 50.097 50.044 49.961 51.847 C 49.878 52.956 49.806 53.863 49.798 53.863 C 49.791 53.863 49.576 53.746 49.321 53.601 Z" style="fill: rgb(77, 77, 77);" transform="matrix(-1.001368, 0.037749, -0.0782, -0.995686, 102.09121, 101.540281)"/>
      <path d="M 52.138 53.613 C 51.939 53.531 51.511 53.374 51.187 53.264 L 50.594 53.062 L 50.669 52.06 C 50.74 51.121 50.748 51.056 50.815 51.018 C 50.92 50.956 52.558 50.956 52.681 51.016 L 52.76 51.053 L 52.658 52.412 C 52.602 53.157 52.545 53.768 52.53 53.765 C 52.511 53.763 52.337 53.695 52.138 53.613 Z" style="fill: rgb(77, 77, 77);" transform="matrix(-1.001368, 0.037749, -0.0782, -0.995686, 107.519908, 102.559552)"/>
      <path d="M 55.092 53.61 C 54.876 53.55 53.839 53.345 53.643 53.323 C 53.565 53.316 53.461 53.303 53.417 53.296 L 53.332 53.286 L 53.385 52.575 C 53.437 51.897 53.443 51.862 53.517 51.815 C 53.592 51.768 53.644 51.765 54.469 51.765 C 55.216 51.765 55.353 51.77 55.399 51.805 C 55.449 51.837 55.447 51.96 55.388 52.752 C 55.35 53.251 55.308 53.66 55.293 53.657 C 55.275 53.657 55.187 53.635 55.092 53.61 Z" style="fill: rgb(77, 77, 77);" transform="matrix(-1.001368, 0.037749, -0.0782, -0.995686, 112.962945, 103.14167)"/>
      <path d="M 48.432 56.703 C 46.239 56.528 44.451 55.982 42.937 55.028 C 41.33 54.016 40.362 52.692 40.09 51.147 C 40.023 50.75 40.112 49.574 40.239 49.178 C 40.787 47.495 42.134 46.067 44.14 45.04 C 45.612 44.285 47.206 43.836 49.059 43.652 C 49.59 43.599 51.298 43.607 51.839 43.664 C 53.931 43.889 55.775 44.529 57.185 45.524 C 58.653 46.558 59.488 47.804 59.71 49.277 C 59.754 49.581 59.666 50.743 59.576 51.047 C 59.039 52.834 57.581 54.355 55.377 55.421 C 54.064 56.057 52.566 56.471 50.898 56.658 C 50.556 56.698 48.766 56.728 48.432 56.703 Z M 50.176 55.845 C 52.29 55.723 54.197 55.132 55.74 54.12 C 57.063 53.25 57.915 52.196 58.292 50.96 C 58.414 50.566 58.475 49.758 58.412 49.365 C 58.157 47.692 56.933 46.304 54.901 45.377 C 53.461 44.721 51.535 44.385 49.733 44.474 C 46.683 44.629 43.968 45.79 42.475 47.582 C 41.088 49.245 40.97 51.212 42.156 52.854 C 42.748 53.669 43.7 54.407 44.833 54.925 C 46.356 55.626 48.275 55.955 50.176 55.845 Z" style="fill: rgb(140, 140, 140);" transform="matrix(-1.001368, 0.037749, -0.0782, -0.995686, 103.779895, 98.228646)"/>
    </g>
    <path style="fill: rgb(216, 216, 216); stroke: rgb(0, 0, 0);"/>
  </g>
  <g transform="matrix(0.353047, 0, 0, -0.338808, 978.031372, 1290.789673)" fill="#000000" stroke="none" style="" bx:origin="0.543 0.498"/>
</svg>