<?xml version="1.0" encoding="utf-8"?>
<svg viewBox="0 0 500 500" xmlns="http://www.w3.org/2000/svg" xmlns:bx="https://boxy-svg.com">
  <g transform="matrix(0.1, 0, 0, -0.1, 576.230489, 484.813924)" fill="#000000" stroke="none"/>
  <g transform="matrix(-18.160603, 0.925302, 0.0514, 24.545359, 1148.683594, -1066.477661)" style="">
    <path fill="#fff" class="accent" d="M 51.645 46.645 C 51.687 46.668 51.706 46.727 51.705 46.825 L 51.706 46.968 L 51.919 46.991 C 52.533 47.047 52.877 47.335 52.814 47.733 C 52.77 48.029 52.539 48.211 52.031 48.353 L 51.729 48.438 L 51.719 48.852 C 51.715 49.079 51.72 49.265 51.731 49.265 C 51.742 49.264 51.803 49.245 51.858 49.223 C 52.015 49.165 52.145 49.043 52.238 48.87 C 52.283 48.786 52.354 48.699 52.398 48.68 C 52.581 48.586 52.877 48.652 52.926 48.797 C 52.967 48.917 52.845 49.133 52.651 49.285 C 52.465 49.431 52.143 49.561 51.875 49.598 L 51.713 49.619 L 51.714 49.763 C 51.715 49.91 51.659 49.99 51.551 49.994 C 51.46 49.997 51.419 49.936 51.407 49.787 L 51.396 49.641 L 51.183 49.619 C 50.715 49.565 50.359 49.387 50.232 49.142 C 50.149 48.978 50.175 48.704 50.283 48.558 C 50.417 48.376 50.667 48.245 51.051 48.149 L 51.391 48.063 L 51.402 47.699 C 51.408 47.452 51.397 47.336 51.37 47.337 C 51.21 47.343 51.004 47.491 50.926 47.658 C 50.87 47.772 50.818 47.803 50.647 47.83 C 50.535 47.847 50.498 47.838 50.4 47.777 C 50.328 47.73 50.287 47.681 50.287 47.634 C 50.291 47.48 50.552 47.263 50.787 47.172 C 50.85 47.145 51.011 47.049 51.145 47.022 L 51.388 46.973 L 51.399 46.824 C 51.406 46.724 51.432 46.665 51.474 46.641 C 51.551 46.599 51.574 46.6 51.645 46.645 Z M 51.709 47.648 L 51.709 47.997 L 51.847 47.944 C 52.052 47.867 52.15 47.793 52.179 47.695 C 52.204 47.594 52.145 47.455 52.051 47.403 C 51.999 47.373 51.77 47.304 51.714 47.299 C 51.71 47.299 51.707 47.456 51.709 47.648 Z M 51.12 48.596 C 50.911 48.674 50.815 48.779 50.814 48.924 C 50.815 49.105 51.017 49.254 51.313 49.291 L 51.418 49.304 L 51.409 48.916 C 51.4 48.481 51.408 48.491 51.12 48.596 Z" style="" transform="matrix(0.999999, 0.000009, -0.000016, 1.000001, 0.000823, -0.000493)"/>
    <path style="fill: rgb(216, 216, 216); stroke: rgb(0, 0, 0);"/>
  </g>
  <g transform="matrix(0.271632, 0, 0, -0.244429, 578.610657, 1023.65979)" fill="#000000" stroke="none" style="" bx:origin="0.543 0.498">
    <path d="M -845.512 3708.915 C -878.498 3697.417 -906.737 3686.669 -908.735 3685.169 C -916.232 3678.92 -912.234 3671.172 -891.993 3652.925 L -872.001 3634.928 L -895.241 3608.433 C -928.477 3569.69 -1020.188 3478.706 -1059.421 3445.212 C -1186.367 3336.231 -1316.063 3259.495 -1445.507 3216.752 C -1467.498 3209.254 -1497.735 3201.005 -1512.729 3198.255 C -1527.722 3195.256 -1541.466 3191.757 -1543.466 3190.257 C -1547.964 3186.508 -1547.464 3176.76 -1542.716 3173.01 C -1531.22 3163.262 -1426.015 3193.507 -1345.55 3229.75 C -1186.118 3301.737 -1017.189 3432.714 -877.249 3592.935 C -865.754 3605.933 -855.508 3616.931 -854.259 3617.431 C -853.009 3617.931 -843.013 3610.432 -832.018 3600.684 C -821.023 3590.936 -809.777 3582.937 -807.029 3582.937 C -804.28 3582.937 -800.531 3585.437 -798.532 3588.686 C -796.783 3591.686 -789.786 3622.68 -783.289 3657.424 C -771.794 3718.163 -771.544 3720.663 -775.792 3725.412 C -778.291 3728.161 -781.54 3730.411 -783.039 3730.411 C -784.538 3730.161 -812.776 3720.663 -845.512 3708.915 Z" style="fill: rgb(77, 77, 77);"/>
    <path d="M -854.508 3583.437 C -854.508 3582.187 -883.246 3552.193 -917.981 3516.449 L -981.704 3451.711 L -981.704 3227.5 C -981.954 3027.036 -981.455 3003.04 -977.956 2999.541 C -974.707 2996.041 -965.461 2995.541 -915.483 2995.541 C -860.256 2995.541 -856.758 2995.792 -852.009 3000.54 C -847.012 3005.54 -847.012 3008.789 -847.012 3295.488 C -847.012 3551.443 -847.511 3585.437 -850.76 3585.437 C -852.759 3585.437 -854.508 3584.437 -854.508 3583.437 Z" style="fill: rgb(77, 77, 77);"/>
    <path d="M -1063.42 3381.723 C -1081.162 3367.225 -1110.899 3344.23 -1129.391 3330.732 L -1163.127 3306.236 L -1163.877 3156.013 C -1164.376 3008.289 -1164.376 3005.54 -1159.379 3000.54 C -1154.631 2995.792 -1151.133 2995.541 -1095.906 2995.541 C -1045.927 2995.541 -1036.681 2996.041 -1033.432 2999.541 C -1029.934 3003.04 -1029.434 3025.036 -1029.434 3205.754 C -1029.434 3316.985 -1029.684 3407.969 -1030.184 3407.969 C -1030.684 3407.969 -1045.677 3396.221 -1063.42 3381.723 Z" style="fill: rgb(77, 77, 77);"/>
    <path d="M -1238.095 3259.994 C -1251.839 3251.746 -1281.327 3235.999 -1303.567 3225.001 L -1344.3 3204.755 L -1344.3 3104.272 C -1344.3 3010.039 -1344.05 3003.54 -1339.802 2999.791 C -1333.055 2993.542 -1223.352 2993.542 -1214.855 2999.541 L -1209.358 3003.29 L -1209.358 3139.516 C -1209.358 3214.253 -1210.107 3275.492 -1211.107 3275.242 C -1212.356 3274.992 -1224.351 3268.243 -1238.095 3259.994 Z" style="fill: rgb(77, 77, 77);"/>
    <path d="M -1407.273 3180.509 C -1422.017 3174.51 -1492.487 3154.013 -1505.732 3151.764 C -1510.979 3151.014 -1517.976 3149.764 -1520.975 3149.014 L -1526.722 3148.015 L -1526.722 3076.777 C -1526.722 3008.789 -1526.473 3005.29 -1521.725 3000.54 C -1516.977 2995.792 -1513.478 2995.541 -1458.252 2995.541 C -1408.273 2995.541 -1399.027 2996.041 -1395.778 2999.541 C -1392.28 3002.79 -1391.78 3015.038 -1391.78 3094.524 C -1391.78 3144.515 -1392.53 3185.508 -1393.53 3185.258 C -1394.779 3185.258 -1400.777 3183.008 -1407.273 3180.509 Z" style="fill: rgb(77, 77, 77);"/>
    <path d="M -1224.351 4018.86 C -1372.038 4001.363 -1494.486 3946.623 -1600.692 3850.89 C -1713.394 3749.408 -1784.863 3616.681 -1810.852 3461.709 C -1817.349 3421.966 -1817.349 3303.987 -1810.852 3264.244 C -1782.614 3095.524 -1699.649 2952.299 -1570.454 2849.318 C -1475.744 2773.581 -1371.289 2728.589 -1248.091 2710.092 C -1212.856 2704.843 -1098.405 2705.593 -1061.92 2711.342 C -920.73 2733.838 -794.034 2798.077 -694.576 2897.809 C -591.121 3001.541 -528.897 3126.518 -506.657 3274.242 C -502.159 3304.737 -502.159 3421.216 -506.657 3451.711 C -533.645 3630.929 -623.607 3783.402 -765.796 3890.383 C -850.51 3954.122 -948.718 3995.614 -1059.421 4014.361 C -1082.162 4018.36 -1201.861 4021.36 -1224.351 4018.86 Z M -1111.899 3932.875 C -970.959 3920.627 -846.262 3861.388 -748.054 3759.906 C -663.84 3672.671 -612.111 3566.94 -593.12 3442.962 C -586.873 3403.469 -586.873 3322.484 -593.12 3282.99 C -618.609 3115.27 -707.571 2976.045 -848.261 2883.062 C -947.969 2817.323 -1078.663 2783.579 -1198.862 2792.578 C -1402.276 2808.075 -1578.201 2924.554 -1669.162 3104.272 C -1753.626 3270.993 -1751.627 3468.207 -1663.914 3632.928 C -1620.183 3714.664 -1552.712 3788.651 -1474.245 3840.642 C -1368.79 3910.879 -1238.596 3943.873 -1111.899 3932.875 Z" style="fill: rgb(140, 140, 140);"/>
  </g>
</svg>