<?xml version="1.0" encoding="utf-8"?>
<svg viewBox="0 0 500 500" xmlns="http://www.w3.org/2000/svg">
  <g transform="matrix(0.072506, 0, 0, -0.067767, 265.212494, 580.68866)" fill="#000000" stroke="none" style="">
    <g transform="matrix(1.883222, 0, 0, 2.850176, 8056.753418, 2704.018066)" fill="#000000" stroke="none" style="">
      <g transform="matrix(1, 0, 0, 1, -855.661499, -1254.453369)" fill="#000000" stroke="none">
        <g transform="matrix(5.685192, 0, 0, -5.019597, 1068.394897, 1779.859009)" style="">
          <path class="accent" d="M -1047.595 -177.135 L -979.294 -176.908 L -976.788 -175.023 C -971.313 -170.875 -971.684 -178.945 -971.684 -54.51 L -971.684 60.046 L -974.004 62.837 C -976.046 65.325 -976.324 66.381 -976.324 72.565 C -976.324 80.936 -978.273 85.084 -983.006 87.196 C -985.883 88.478 -989.873 88.553 -1048.244 88.553 C -1116.174 88.553 -1113.576 88.704 -1117.752 84.179 C -1119.422 82.369 -1119.793 80.71 -1119.979 73.621 C -1120.35 66.079 -1120.536 65.024 -1122.577 63.063 L -1124.805 60.876 L -1124.805 -54.585 C -1124.805 -166.501 -1124.712 -170.196 -1123.041 -172.308 C -1122.113 -173.439 -1120.072 -175.098 -1118.68 -175.853 C -1116.081 -177.21 -1113.39 -177.285 -1047.595 -177.135 Z M -997.019 -162.957 L -1048.152 -162.957 C -1096.315 -162.957 -1099.47 -162.881 -1102.068 -161.524 C -1108.286 -158.432 -1110.142 -154.435 -1109.864 -144.48 L -1109.678 -138.07 L -987.46 -138.07 L -987.46 -146.214 C -987.46 -155.491 -988.759 -158.432 -993.863 -161.222 Z M -987.46 -133.545 L -1109.864 -133.545 L -1109.678 -123.59 L -1109.493 -113.56 L -1048.43 -113.333 L -987.46 -113.183 Z M -987.46 -108.658 L -1110.049 -108.658 L -1109.864 -98.477 L -1109.771 -88.296 L -987.46 -88.296 Z M -987.274 -83.394 L -1048.244 -83.394 C -1081.745 -83.394 -1109.4 -83.167 -1109.493 -82.941 C -1109.678 -82.715 -1109.771 -80.151 -1109.585 -77.21 C -1109.214 -70.875 -1107.265 -67.632 -1102.347 -65.596 C -1099.099 -64.238 -1096.222 -64.163 -1048.523 -64.163 C -1002.401 -64.163 -997.854 -64.314 -994.977 -65.52 C -989.502 -67.707 -987.924 -70.271 -987.646 -77.21 Z M -988.295 67.814 L -1108.1 67.814 L -1108.1 78.372 L -1048.43 78.221 L -988.852 77.995 L -988.574 72.867 Z" fill="#fff" style=""/>
        </g>
      </g>
    </g>
    <path d="M -1697.546 6767.024 C -1727.353 6749.761 -1748.218 6727.103 -1764.115 6694.735 L -1786.967 6648.34 L -1786.967 5351.448 C -1786.967 4410.608 -1783.987 4044.845 -1776.038 4017.872 C -1761.135 3970.398 -1732.321 3935.872 -1685.624 3909.977 C -1650.849 3890.556 -1618.061 3889.477 -1007.019 3889.477 L -366.17 3889.477 L -366.17 3701.741 C -366.17 3537.741 -368.157 3510.768 -384.054 3490.268 C -401.939 3466.531 -403.926 3466.531 -665.233 3467.61 C -906.669 3469.768 -930.515 3467.61 -944.425 3450.347 C -970.257 3419.057 -1033.845 3266.926 -1029.871 3245.347 C -1026.891 3227.005 -976.219 3225.926 136.573 3222.689 C 1143.054 3220.531 1302.024 3222.689 1312.953 3235.637 C 1328.85 3258.294 1256.32 3436.32 1222.539 3454.662 C 1205.648 3464.373 1132.125 3468.689 969.18 3468.689 C 675.085 3468.689 697.937 3449.268 696.944 3700.662 L 694.956 3884.083 L 1374.554 3889.477 L 2053.159 3894.872 L 2089.921 3919.688 C 2109.792 3933.714 2136.618 3962.846 2149.535 3984.425 L 2172.387 4024.346 L 2172.387 5341.738 L 2172.387 6658.051 L 2144.567 6704.446 C 2126.683 6733.577 2100.85 6758.393 2075.017 6771.34 C 2034.281 6790.761 1979.635 6791.84 189.232 6791.84 L -1654.823 6791.84 L -1697.546 6767.024 Z M 1998.513 5340.659 L 1998.513 4105.266 L 193.206 4107.424 L -1613.093 4110.661 L -1615.081 5343.896 L -1617.068 6576.051 L 190.226 6576.051 L 1998.513 6576.051 L 1998.513 5340.659 Z M 551.883 3808.556 C 573.742 3778.346 571.754 3736.267 547.909 3708.215 C 527.044 3684.478 525.057 3684.478 174.329 3684.478 L -178.387 3684.478 L -202.232 3711.451 C -234.026 3744.899 -234.026 3775.109 -202.232 3809.635 L -177.393 3836.609 L 179.297 3833.372 C 524.063 3830.135 537.973 3829.056 551.883 3808.556 Z" style="fill: rgb(140, 140, 140);"/>
    <path d="M -1844.594 3130.979 C -1862.478 3110.479 -1945.938 2902.242 -1945.938 2877.427 C -1945.938 2873.111 -1963.822 2820.243 -1984.687 2759.822 C -2006.545 2700.48 -2030.39 2626.032 -2039.333 2595.822 C -2054.236 2541.875 -2054.236 2540.796 -2029.397 2508.427 L -2003.564 2476.059 L 140.548 2476.059 L 2283.666 2476.059 L 2310.492 2498.717 C 2324.402 2510.585 2336.325 2531.085 2336.325 2544.033 C 2335.331 2556.98 2313.473 2635.743 2285.653 2718.822 C 2257.833 2801.901 2219.084 2920.584 2199.213 2982.084 C 2178.348 3046.821 2151.522 3107.242 2136.618 3124.505 L 2109.792 3155.795 L 143.528 3155.795 L -1823.729 3155.795 L -1844.594 3130.979 Z M 1996.526 3104.005 C 2021.365 3075.953 2157.483 2695.085 2157.483 2649.769 C 2157.483 2635.743 2146.554 2621.717 2127.676 2610.927 C 2101.843 2596.901 1877.298 2594.743 143.528 2594.743 C -1407.426 2594.743 -1816.774 2597.98 -1836.645 2608.769 C -1872.414 2628.19 -1872.414 2662.717 -1836.645 2767.374 C -1819.755 2818.085 -1789.948 2907.637 -1771.07 2966.979 C -1749.212 3033.874 -1726.36 3084.584 -1711.456 3099.689 L -1686.617 3123.426 L 146.509 3123.426 C 1880.279 3123.426 1979.635 3122.347 1996.526 3104.005 Z" style="fill: rgb(91, 91, 91);"/>
    <path d="M 2400.906 3061.926 C 2316.453 3039.268 2290.621 2897.927 2348.247 2768.453 C 2381.035 2694.006 2417.797 2656.243 2495.295 2618.48 C 2548.947 2592.585 2554.909 2591.506 2808.268 2591.506 C 3031.82 2591.506 3070.569 2593.664 3098.388 2609.848 C 3148.067 2636.822 3164.957 2673.506 3164.957 2751.19 C 3164.957 2881.742 3080.504 3011.216 2968.232 3052.216 C 2930.476 3066.242 2876.824 3069.479 2671.156 3068.4 C 2533.05 3067.321 2411.836 3064.084 2400.906 3061.926 Z" style="fill: rgb(91, 91, 91);"/>
  </g>
</svg>