<?xml version="1.0" encoding="utf-8"?>
<svg viewBox="0 0 500 500" xmlns="http://www.w3.org/2000/svg">
  <g transform="matrix(0.210806, 0, 0, -0.174794, 804.621704, 498.169708)" fill="#000000" stroke="none" style="">
    <g transform="matrix(1, 0, 0, 1, -855.661499, -1254.453369)" fill="#000000" stroke="none">
      <g transform="matrix(5.685192, 0, 0, -5.019597, 1068.394897, 1779.859009)" style="">
        <path class="accent" d="M -478.7 -352.848 C -470.146 -352.346 -460.862 -348.612 -459.005 -345.022 C -457.88 -342.796 -455.91 -316.445 -454.841 -289.376 C -454.56 -281.263 -454.166 -273.006 -453.941 -270.923 L -453.659 -267.19 L -437.229 -266.974 C -418.828 -266.759 -419.053 -266.831 -417.084 -261.517 C -415.79 -258.071 -415.902 -255.127 -417.59 -251.896 C -427.55 -232.438 -447.751 -202.353 -470.146 -173.561 C -477.574 -164.083 -479.487 -162.934 -483.876 -165.591 C -485.452 -166.524 -503.233 -189.501 -514.206 -204.651 C -521.577 -214.847 -533 -232.797 -540.09 -245.29 C -544.648 -253.332 -544.873 -253.906 -544.873 -257.496 C -544.873 -262.092 -543.072 -265.251 -539.921 -266.4 C -538.74 -266.759 -531.256 -267.118 -522.534 -267.118 L -507.285 -267.118 L -506.947 -272.359 C -506.778 -275.16 -506.328 -283.991 -506.047 -291.889 C -505.034 -316.086 -503.796 -337.483 -503.177 -340.929 C -502.839 -342.796 -502.052 -345.022 -501.433 -345.884 C -499.576 -348.397 -493.33 -351.053 -485.227 -352.848 C -484.439 -353.064 -481.513 -353.064 -478.7 -352.848 Z" fill="#fff" style=""/>
      </g>
    </g>
  </g>
  <g transform="matrix(0.067438, 0, 0, -0.062998, 29.879906, 459.864899)" fill="#000000" stroke="none" style="">
    <path d="M305 6010 c-78 -12 -137 -43 -194 -100 -75 -75 -104 -143 -105 -250 -1 -73 3 -93 27 -144 69 -148 173 -209 381 -221 253 -14 402 -79 476 -208 35 -61 74 -176 90 -267 6 -36 19 -105 30 -155 11 -49 60 -299 110 -555 50 -256 100 -505 110 -555 28 -126 178 -873 195 -970 49 -268 125 -462 244 -623 187 -252 444 -411 793 -489 65 -15 197 -17 1186 -20 1095 -4 1113 -3 1178 17 197 60 352 226 646 690 48 75 272 470 343 605 138 260 404 797 424 856 54 162 -9 326 -164 421 -142 87 -339 51 -450 -82 -20 -24 -103 -178 -185 -344 -163 -328 -245 -484 -352 -676 -39 -69 -80 -143 -92 -165 -132 -238 -293 -486 -375 -578 l-25 -27 -970 0 c-933 0 -974 1 -1054 20 -153 37 -258 106 -339 225 -49 71 -62 122 -164 630 -71 355 -148 737 -174 860 -13 66 -63 318 -110 560 -112 575 -138 687 -193 825 -154 386 -485 637 -927 704 -128 19 -296 27 -360 16z" style="fill: rgb(140, 140, 140);"/>
    <path d="M2360 1176 c-103 -31 -177 -75 -254 -152 -116 -116 -176 -262 -176 -425 0 -258 156 -473 412 -566 102 -38 260 -39 363 -4 191 65 331 205 396 396 34 99 34 251 0 350 -69 206 -200 336 -401 399 -107 34 -231 35 -340 2z" style="fill: rgb(91, 91, 91);"/>
    <path d="M4550 1184 c-266 -69 -452 -309 -452 -584 0 -142 39 -255 129 -371 78 -100 188 -171 328 -209 66 -19 96 -21 170 -17 323 21 569 281 567 601 -1 274 -189 513 -457 581 -74 19 -212 18 -285 -1z" style="fill: rgb(91, 91, 91);"/>
  </g>
</svg>