<?xml version="1.0" encoding="utf-8"?>
<svg viewBox="0 0 500 500" xmlns="http://www.w3.org/2000/svg">
  <g transform="matrix(0.094453, 0, 0, -0.093371, 412.972076, 363.444275)" fill="#000000" stroke="none" style="">
    <g transform="matrix(1, 0, 0, 1, -855.661499, -1254.453369)" fill="#000000" stroke="none">
      <g transform="matrix(5.685192, 0, 0, -5.019597, 1068.394897, 1779.859009)" style="">
        <path class="accent" d="M 29.724 -600.443 C 39.941 -597.663 46.496 -594.472 55.364 -587.882 C 68.28 -578.307 78.305 -563.79 83.895 -546.39 C 86.594 -538.05 86.884 -535.888 86.884 -524.254 C 86.98 -503.662 82.16 -488.527 70.304 -472.672 C 62.304 -461.964 44.954 -443.226 41.773 -441.99 C 40.327 -441.372 35.989 -440.858 32.23 -440.858 L 25.29 -440.858 L -19.725 -488.939 L -64.835 -537.124 L -64.835 -543.919 C -64.835 -552.876 -62.715 -556.377 -47.292 -572.233 C -28.978 -591.074 -20.978 -596.119 -1.7 -601.061 C 9.482 -603.944 17.482 -603.738 29.724 -600.443 Z" fill="#fff" style=""/>
      </g>
    </g>
  </g>
  <g transform="matrix(0.05176, 0, 0, -0.048255, 14.188807, 471.418518)" fill="#000000" stroke="none" style="">
    <path d="M 2065 8875.344 C 1803 8867.916 1757 8861.55 1580 8805.315 C 1432 8757.568 1358 8727.859 1225 8657.831 C 662 8363.923 227 7804.755 71 7175.559 C 0 6889.078 -3 6749.021 3 4159.024 L 8 2005.115 L 53 1840.654 C 187 1350.454 333 1083.072 641 761.577 C 698 702.159 777 626.825 815 593.933 C 1075 374.297 1406 210.897 1740 137.686 C 1855 112.221 1895 109.038 2245 100.549 C 2738 87.817 5802 87.817 6295 100.549 C 6644 109.038 6685 112.221 6800 137.686 C 7136 210.897 7488 385.969 7740 603.482 C 8176 980.151 8455 1493.694 8522 2040.129 C 8529 2103.791 8534 2702.217 8537 3983.953 L 8541 5835.466 L 8005 5267.81 L 7470 4700.154 L 7469 3835.407 C 7469 3360.062 7465 2784.979 7460 2556.855 C 7451 2102.73 7451 2097.425 7379 1928.72 C 7285 1706.963 7081 1482.022 6870 1368.491 C 6774 1317.561 6621 1268.754 6517 1257.082 C 6460 1250.716 5570 1246.472 4194 1246.472 L 1963 1246.472 L 1856 1288.913 C 1645 1372.735 1559 1424.726 1432 1542.502 C 1304 1660.277 1184 1850.203 1130 2019.969 C 1111 2079.387 1108 2125.012 1099 2444.385 C 1086 2908.059 1086 6073.139 1099 6520.898 C 1109 6855.125 1110 6868.918 1136 6945.313 C 1196 7121.446 1283 7266.808 1409 7401.56 C 1508 7505.542 1575 7556.472 1716 7632.867 C 1834 7696.529 1904 7714.567 2097 7729.421 C 2173 7734.726 2751 7743.215 3382 7746.398 L 4528 7753.825 L 5062 8320.42 L 5595 8885.954 L 3955 8883.832 C 3053 8882.771 2203 8878.527 2065 8875.344 Z" style="fill: rgb(91, 91, 91);"/>
    <path d="M 6834 8008.094 C 6786 7985.094 6494 7700.094 5317 6527.094 C 4417 5630.094 3658 4860.094 3553 4737.094 C 3495 4669.094 3490 4659.094 3490 4617.094 C 3490 4533.094 3492 4531.094 4028 3993.094 L 4425 3596.094 L 4511 3596.094 L 4596 3596.094 L 6086 5089.094 C 7421 6426.094 7806 6817.094 7893 6924.094 C 7921 6959.094 7928 7005.094 7911 7048.094 C 7906 7061.094 7860 7116.094 7810 7171.094 C 7663 7330.094 7060 7933.094 7003 7978.094 C 6940 8026.094 6893 8035.094 6834 8008.094 Z" style="fill: rgb(140, 140, 140);"/>
    <path d="M 2959 3949.094 C 2937 3930.094 2905 3876.094 2859 3781.094 C 2732 3517.094 2424 2777.094 2413 2713.094 C 2401 2635.094 2501 2526.094 2588 2524.094 C 2621 2523.094 2850 2613.094 3235 2778.094 C 3730 2991.094 3818 3034.094 3845 3075.094 C 3878 3126.094 3885 3183.094 3863 3224.094 C 3836 3273.094 3620 3502.094 3389 3726.094 C 3130 3978.094 3133 3976.094 3054 3976.094 C 3000 3976.094 2987 3972.094 2959 3949.094 Z" style="fill: rgb(140, 140, 140);"/>
  </g>
</svg>