<?xml version="1.0" encoding="utf-8"?>
<svg viewBox="0 0 500 500" xmlns="http://www.w3.org/2000/svg">
  <g transform="matrix(0.1, 0, 0, -0.1, 165.110443, 398.460449)" fill="#000000" stroke="none">
    <g transform="matrix(1, 0, 0, 1, -855.661499, -1254.453369)" fill="#000000" stroke="none">
      <g transform="matrix(13.203489, 0, 0, -11.792562, -4161.546387, 2832.104004)" style="">
        <path class="accent" d="M 498.667 -114.748 C 498.927 -114.817 499.123 -56.921 499.123 13.895 L 499.123 142.538 L 481.376 146.96 C 471.589 149.309 456.256 153.108 447.252 155.319 C 390.162 169.482 371.828 173.973 370.914 173.973 C 370.066 173.973 369.935 159.81 369.935 45.814 L 369.935 -82.276 L 372.415 -82.967 C 373.72 -83.312 392.445 -88.01 413.977 -93.468 C 435.508 -98.857 463.238 -105.835 475.635 -108.944 C 488.031 -112.122 498.34 -114.748 498.667 -114.748 Z" fill="#fff" style=""/>
      </g>
    </g>
  </g>
  <g transform="matrix(0.086148, 0, 0, -0.081473, -153.992065, 483.331879)" fill="#000000" stroke="none" style="">
    <path d="M5650 2802 l0 -1858 748 -243 c411 -133 750 -241 755 -241 4 0 6 833 5 1851 l-3 1852 -745 248 c-409 137 -748 249 -752 249 -4 0 -8 -836 -8 -1858z" style="fill: rgb(140, 140, 140);"/>
    <path d="M2040 2709 c0 -1503 3 -1890 13 -1894 6 -2 298 -72 647 -155 349 -83 659 -157 688 -165 l52 -13 -2 1851 -3 1851 -665 198 c-366 109 -680 202 -697 207 l-33 9 0 -1889z" style="fill: rgb(91, 91, 91);"/>
  </g>
</svg>