<?xml version="1.0" encoding="utf-8"?>
<!-- Generator: Adobe Illustrator 20.0.0, SVG Export Plug-In . SVG Version: 6.00 Build 0)  -->
<svg version="1.1" id="logo" xmlns="http://www.w3.org/2000/svg" xmlns:xlink="http://www.w3.org/1999/xlink" x="0px" y="0px"
	 viewBox="0 0 714.2 247" style="enable-background:new 0 0 714.2 247;" xml:space="preserve">
<style type="text/css">
	.st0{display:none;fill:#F2F3F2;}
	.st1{fill:#151719;}
	.st2{font-family:'Ubuntu';}
	.st3{font-size:50px;}
	.st4{letter-spacing:5;}
	.st5{font-size:130px;}
	.st6{display:none;fill:#151719;}
	.st7{fill:#292C30;}
	.st8{display:none;fill:#292C30;}
</style>
<polygon class="st0" points="875.5,420.2 -115.6,420.1 -115.6,-175.2 875.5,-173.1 "/>
<g id="text_1_">
	<text transform="matrix(1 0 0 1 245.1657 190.3843)" class="st1 st2 st3 st4">creative studio</text>
	<text transform="matrix(1 0 0 1 223.6665 147.7485)" class="st1 st2 st5">takida</text>
</g>
<g id="lion">
	<g>
		<polygon class="st1" points="100.1,143.5 94.5,144.8 94.5,118.3 102.7,115.6 108.8,115.6 108.8,118.9 112.8,117.7 100.9,128.3 
			101.1,121.8 98.1,130.2 96.3,132.1 96.2,139.5 100.8,139.5 112.8,144.8 118.2,145.2 111.4,147.3 		"/>
		<polygon class="st1" points="108.8,113.4 105.7,109.8 104.5,97.7 		"/>
		<polygon class="st6" points="96.7,79.8 94.5,91.8 94.5,75.8 		"/>
		<polygon class="st6" points="113.1,72.1 107.7,60.7 112.2,60.7 		"/>
		<polygon class="st1" points="123.8,88.1 113.8,88.1 110,84.3 110.9,93.4 105.7,82.5 113.8,75.1 126.7,75.1 135.7,80.8 130.6,80.8 
					"/>
		<polygon class="st1" points="112.5,224.3 94.5,247 94.5,163.2 111.3,163.2 119.3,154.9 119.1,145.2 126.4,139.7 126.8,122.8 
			113.1,96.8 135.5,123.5 145.5,110.8 145.4,75.5 135.3,59.5 144.1,60 111.8,42.2 97.8,47.4 94.5,67.4 94.5,0 106.3,0 101.3,11.8 
			114.6,0 138.3,0 154.8,16.7 124.1,16.2 163.5,24 182,38.4 181.6,67 171.4,58.8 189,90.3 189,111.3 166.8,92 189,124.8 189,152 
			180.8,161.4 163.1,131.4 175.5,166.7 142.4,212.2 127.8,188.2 134.5,214.7 117.6,222.4 106.1,206.2 		"/>
	</g>
	<g>
		<polygon class="st7" points="88.9,143.5 94.5,144.8 94.5,118.3 86.3,115.6 80.2,115.6 80.2,118.9 76.2,117.7 88.1,128.3 
			87.9,121.8 90.9,130.2 92.8,132.1 92.8,139.5 88.2,139.5 76.2,144.8 70.8,145.2 77.6,147.3 		"/>
		<polygon class="st7" points="80.2,113.4 83.3,109.8 84.5,97.7 		"/>
		<polygon class="st8" points="92.3,79.8 94.5,91.8 94.5,75.8 		"/>
		<polygon class="st8" points="75.9,72.1 81.3,60.7 76.8,60.7 		"/>
		<polygon class="st7" points="65.3,88.1 75.3,88.1 79,84.3 78.1,93.4 83.3,82.5 75.3,75.1 62.3,75.1 53.3,80.8 58.4,80.8 		"/>
		<polygon class="st7" points="76.5,224.3 94.5,247 94.5,163.2 77.8,163.2 69.8,154.9 69.9,145.2 62.6,139.7 62.3,122.8 75.9,96.8 
			53.5,123.5 43.5,110.8 43.6,75.5 53.8,59.5 44.9,60 77.3,42.2 91.3,47.4 94.5,67.4 94.5,0 82.7,0 87.8,11.8 74.4,0 50.7,0 
			34.3,16.7 64.9,16.2 25.5,24 7,38.4 7.4,67 17.6,58.8 0,90.3 0,111.3 22.2,92 0,124.8 0,152 8.3,161.4 25.9,131.4 13.5,166.7 
			46.6,212.2 61.3,188.2 54.5,214.7 71.4,222.4 82.9,206.2 		"/>
	</g>
</g>
</svg>
