<?xml version="1.0" encoding="utf-8"?>
<svg viewBox="0 0 500 500" xmlns="http://www.w3.org/2000/svg" xmlns:bx="https://boxy-svg.com">
  <g transform="matrix(0.1, 0, 0, -0.1, 1478.506348, 423.332092)" fill="#000000" stroke="none"/>
  <g transform="matrix(0.1, 0, 0, -0.1, 1581.410767, 580.195435)" fill="#000000" stroke="none">
    <path d="M -13381.246 5430.437 C -13535.246 5258.437 -13663.246 5070.437 -13759.246 4875.437 L -13814.246 4763.437 L -13307.246 4760.437 C -13028.246 4759.437 -12798.246 4760.437 -12796.246 4762.437 C -12789.246 4769.437 -12903.246 4989.437 -12965.246 5088.437 C -13059.246 5237.437 -13261.246 5488.437 -13299.246 5502.437 C -13306.246 5505.437 -13342.246 5472.437 -13381.246 5430.437 Z" style="fill: rgb(140, 140, 140);"/>
    <path d="M -13897.246 4541.437 C -13982.246 4281.437 -14009.246 4034.437 -13993.246 3674.437 C -13960.246 2950.437 -13830.246 2259.437 -13662.246 1910.437 L -13622.246 1828.437 L -13310.246 1830.437 L -12999.246 1833.437 L -12976.246 1873.437 C -12776.246 2225.437 -12610.246 3225.437 -12626.246 3975.437 C -12631.246 4230.437 -12646.246 4330.437 -12707.246 4531.437 L -12734.246 4618.437 L -13303.246 4618.437 L -13871.246 4618.437 L -13897.246 4541.437 Z M -13128.246 4330.437 C -13004.246 4271.437 -12913.246 4149.437 -12894.246 4013.437 C -12842.246 3647.437 -13256.246 3403.437 -13555.246 3623.437 C -13797.246 3801.437 -13758.246 4191.437 -13487.246 4324.437 C -13410.246 4362.437 -13379.246 4368.437 -13281.246 4364.437 C -13209.246 4361.437 -13183.246 4355.437 -13128.246 4330.437 Z" style="fill: rgb(140, 140, 140);"/>
    <path d="M -13354.246 4257.437 C -13450.246 4242.437 -13537.246 4179.437 -13580.246 4090.437 C -13618.246 4012.437 -13620.246 3898.437 -13583.246 3823.437 C -13531.246 3716.437 -13442.246 3657.437 -13323.246 3650.437 C -13190.246 3643.437 -13082.246 3705.437 -13023.246 3823.437 C -12986.246 3897.437 -12987.246 4011.437 -13026.246 4090.437 C -13085.246 4210.437 -13218.246 4278.437 -13354.246 4257.437 Z" style="fill: rgb(140, 140, 140);"/>
    <path d="M -14063.246 2622.437 C -14082.246 2597.437 -14122.246 2554.437 -14150.246 2527.437 L -14203.246 2477.437 L -14164.246 2360.437 C -14118.246 2223.437 -14095.246 2096.437 -14086.246 1941.437 C -14083.246 1879.437 -14077.246 1828.437 -14074.246 1828.437 C -14057.246 1827.437 -13817.246 1882.437 -13810.246 1888.437 C -13806.246 1892.437 -13820.246 1939.437 -13842.246 1994.437 C -13895.246 2126.437 -13947.246 2307.437 -13985.246 2497.437 C -14002.246 2583.437 -14019.246 2656.437 -14022.246 2660.437 C -14025.246 2663.437 -14044.246 2646.437 -14063.246 2622.437 Z" style="fill: rgb(140, 140, 140);"/>
    <path d="M -12607.246 2561.437 C -12648.246 2339.437 -12725.246 2070.437 -12784.246 1939.437 C -12800.246 1903.437 -12810.246 1871.437 -12806.246 1868.437 C -12798.246 1861.437 -12558.246 1808.437 -12535.246 1808.437 C -12527.246 1808.437 -12523.246 1829.437 -12523.246 1877.437 C -12523.246 2029.437 -12481.246 2264.437 -12428.246 2404.437 L -12404.246 2468.437 L -12429.246 2484.437 C -12442.246 2493.437 -12481.246 2535.437 -12515.246 2577.437 C -12548.246 2619.437 -12579.246 2654.437 -12582.246 2656.437 C -12586.246 2657.437 -12597.246 2614.437 -12607.246 2561.437 Z" style="fill: rgb(140, 140, 140);"/>
    <path d="M -14598.246 2582.437 C -14725.246 2517.437 -14816.246 2293.437 -14843.246 1978.437 C -14848.246 1915.437 -14853.246 1846.437 -14853.246 1826.437 L -14853.246 1788.437 L -14536.246 1788.437 L -14220.246 1788.437 L -14227.246 1912.437 C -14245.246 2257.437 -14343.246 2518.437 -14478.246 2579.437 C -14527.246 2602.437 -14559.246 2603.437 -14598.246 2582.437 Z" style="fill: rgb(77, 77, 77);"/>
    <path d="M -12128.246 2584.437 C -12261.246 2522.437 -12361.246 2256.437 -12379.246 1912.437 L -12386.246 1788.437 L -12068.246 1788.437 L -11750.246 1788.437 L -11757.246 1896.437 C -11774.246 2171.437 -11818.246 2345.437 -11903.246 2476.437 C -11966.246 2574.437 -12056.246 2618.437 -12128.246 2584.437 Z" style="fill: rgb(77, 77, 77);"/>
    <path d="M -14833.246 1631.437 C -14833.246 1621.437 -14826.246 1574.437 -14817.246 1526.437 L -14801.246 1438.437 L -14538.246 1438.437 C -14296.246 1438.437 -14274.246 1439.437 -14269.246 1456.437 C -14259.246 1489.437 -14243.246 1592.437 -14243.246 1620.437 L -14243.246 1648.437 L -14538.246 1648.437 C -14812.246 1648.437 -14833.246 1647.437 -14833.246 1631.437 Z" style="fill: rgb(77, 77, 77);"/>
    <path d="M -12356.246 1611.437 C -12353.246 1590.437 -12345.246 1544.437 -12339.246 1508.437 L -12328.246 1443.437 L -12062.246 1440.437 L -11796.246 1438.437 L -11784.246 1510.437 C -11777.246 1550.437 -11769.246 1598.437 -11766.246 1616.437 L -11761.246 1648.437 L -12061.246 1648.437 L -12362.246 1648.437 L -12356.246 1611.437 Z" style="fill: rgb(77, 77, 77);"/>
    <g transform="matrix(1.823096, 0, 0, 1.977961, 7864.383789, -720.193787)" fill="#000000" stroke="none" style=""/>
    <g transform="matrix(-331.085114, -18.302114, 0.937071, -485.49765, 7827.411133, 29868.878906)" style="">
      <path fill="#fff" class="accent" d="M 64.713 55.531 C 64.75 55.594 64.696 55.806 64.609 55.953 C 64.458 56.204 63.883 56.889 63.82 56.891 C 63.762 56.893 63.202 56.272 63.038 56.025 C 62.953 55.894 62.932 55.837 62.929 55.72 L 62.925 55.576 L 63.097 55.563 L 63.269 55.551 L 63.373 55.699 C 63.488 55.862 63.779 56.172 63.818 56.17 C 63.857 56.169 64.146 55.837 64.26 55.666 L 64.363 55.511 L 64.529 55.505 C 64.65 55.501 64.698 55.507 64.713 55.531 Z" style=""/>
      <path style="fill: rgb(216, 216, 216); stroke: rgb(0, 0, 0);"/>
    </g>
    <g transform="matrix(4.952111, 0, 0, 4.834711, 7907.776855, -11378.355469)" fill="#000000" stroke="none" style="" bx:origin="0.543 0.498"/>
    <g transform="matrix(-253.245071, -13.999178, 0.683966, -354.36377, 1584.286865, 21928.136719)" style="">
      <path fill="#fff" class="accent" d="M 64.713 55.531 C 64.75 55.594 64.696 55.806 64.609 55.953 C 64.458 56.204 63.883 56.889 63.82 56.891 C 63.762 56.893 63.202 56.272 63.038 56.025 C 62.953 55.894 62.932 55.837 62.929 55.72 L 62.925 55.576 L 63.097 55.563 L 63.269 55.551 L 63.373 55.699 C 63.488 55.862 63.779 56.172 63.818 56.17 C 63.857 56.169 64.146 55.837 64.26 55.666 L 64.363 55.511 L 64.529 55.505 C 64.65 55.501 64.698 55.507 64.713 55.531 Z" style=""/>
      <path style="fill: rgb(216, 216, 216); stroke: rgb(0, 0, 0);"/>
    </g>
    <g transform="matrix(-253.245087, -13.999181, 0.68397, -354.36377, 4036.532471, 21936.564453)" style="">
      <path fill="#fff" class="accent" d="M 64.713 55.531 C 64.75 55.594 64.696 55.806 64.609 55.953 C 64.458 56.204 63.883 56.889 63.82 56.891 C 63.762 56.893 63.202 56.272 63.038 56.025 C 62.953 55.894 62.932 55.837 62.929 55.72 L 62.925 55.576 L 63.097 55.563 L 63.269 55.551 L 63.373 55.699 C 63.488 55.862 63.779 56.172 63.818 56.17 C 63.857 56.169 64.146 55.837 64.26 55.666 L 64.363 55.511 L 64.529 55.505 C 64.65 55.501 64.698 55.507 64.713 55.531 Z" style=""/>
      <path style="fill: rgb(216, 216, 216); stroke: rgb(0, 0, 0);"/>
    </g>
  </g>
</svg>