<?xml version="1.0" encoding="utf-8"?>
<svg viewBox="0 0 500 500" xmlns="http://www.w3.org/2000/svg" xmlns:bx="https://boxy-svg.com">
  <g transform="matrix(0.1, 0, 0, -0.1, 576.230489, 484.813924)" fill="#000000" stroke="none"/>
  <g transform="matrix(0.1, 0, 0, -0.1, 679.134903, 641.677297)" fill="#000000" stroke="none">
    <path d="M -4648.282 6061.849 C -4802.282 5889.849 -4930.282 5701.849 -5026.282 5506.849 L -5081.282 5394.849 L -4574.282 5391.849 C -4295.282 5390.849 -4065.282 5391.849 -4063.282 5393.849 C -4056.282 5400.849 -4170.282 5620.849 -4232.282 5719.849 C -4326.282 5868.849 -4528.282 6119.849 -4566.282 6133.849 C -4573.282 6136.849 -4609.282 6103.849 -4648.282 6061.849 Z" style="fill: rgb(140, 140, 140);"/>
    <path d="M -5164.282 5172.849 C -5249.282 4912.849 -5276.282 4665.849 -5260.282 4305.849 C -5227.282 3581.849 -5097.282 2890.849 -4929.282 2541.849 L -4889.282 2459.849 L -4577.282 2461.849 L -4266.282 2464.849 L -4243.282 2504.849 C -4043.282 2856.849 -3877.282 3856.849 -3893.282 4606.849 C -3898.282 4861.849 -3913.282 4961.849 -3974.282 5162.849 L -4001.282 5249.849 L -4570.282 5249.849 L -5138.282 5249.849 L -5164.282 5172.849 Z M -4395.282 4961.849 C -4271.282 4902.849 -4180.282 4780.849 -4161.282 4644.849 C -4109.282 4278.849 -4523.282 4034.849 -4822.282 4254.849 C -5064.282 4432.849 -5025.282 4822.849 -4754.282 4955.849 C -4677.282 4993.849 -4646.282 4999.849 -4548.282 4995.849 C -4476.282 4992.849 -4450.282 4986.849 -4395.282 4961.849 Z" style="fill: rgb(140, 140, 140);"/>
    <path d="M -4621.282 4888.849 C -4717.282 4873.849 -4804.282 4810.849 -4847.282 4721.849 C -4885.282 4643.849 -4887.282 4529.849 -4850.282 4454.849 C -4798.282 4347.849 -4709.282 4288.849 -4590.282 4281.849 C -4457.282 4274.849 -4349.282 4336.849 -4290.282 4454.849 C -4253.282 4528.849 -4254.282 4642.849 -4293.282 4721.849 C -4352.282 4841.849 -4485.282 4909.849 -4621.282 4888.849 Z" style="fill: rgb(140, 140, 140);"/>
    <path d="M -5330.282 3253.849 C -5349.282 3228.849 -5389.282 3185.849 -5417.282 3158.849 L -5470.282 3108.849 L -5431.282 2991.849 C -5385.282 2854.849 -5362.282 2727.849 -5353.282 2572.849 C -5350.282 2510.849 -5344.282 2459.849 -5341.282 2459.849 C -5324.282 2458.849 -5084.282 2513.849 -5077.282 2519.849 C -5073.282 2523.849 -5087.282 2570.849 -5109.282 2625.849 C -5162.282 2757.849 -5214.282 2938.849 -5252.282 3128.849 C -5269.282 3214.849 -5286.282 3287.849 -5289.282 3291.849 C -5292.282 3294.849 -5311.282 3277.849 -5330.282 3253.849 Z" style="fill: rgb(140, 140, 140);"/>
    <path d="M -3874.282 3192.849 C -3915.282 2970.849 -3992.282 2701.849 -4051.282 2570.849 C -4067.282 2534.849 -4077.282 2502.849 -4073.282 2499.849 C -4065.282 2492.849 -3825.282 2439.849 -3802.282 2439.849 C -3794.282 2439.849 -3790.282 2460.849 -3790.282 2508.849 C -3790.282 2660.849 -3748.282 2895.849 -3695.282 3035.849 L -3671.282 3099.849 L -3696.282 3115.849 C -3709.282 3124.849 -3748.282 3166.849 -3782.282 3208.849 C -3815.282 3250.849 -3846.282 3285.849 -3849.282 3287.849 C -3853.282 3288.849 -3864.282 3245.849 -3874.282 3192.849 Z" style="fill: rgb(140, 140, 140);"/>
    <path d="M -5865.282 3213.849 C -5992.282 3148.849 -6083.282 2924.849 -6110.282 2609.849 C -6115.282 2546.849 -6120.282 2477.849 -6120.282 2457.849 L -6120.282 2419.849 L -5803.282 2419.849 L -5487.282 2419.849 L -5494.282 2543.849 C -5512.282 2888.849 -5610.282 3149.849 -5745.282 3210.849 C -5794.282 3233.849 -5826.282 3234.849 -5865.282 3213.849 Z" style="fill: rgb(77, 77, 77);"/>
    <path d="M -3395.282 3215.849 C -3528.282 3153.849 -3628.282 2887.849 -3646.282 2543.849 L -3653.282 2419.849 L -3335.282 2419.849 L -3017.282 2419.849 L -3024.282 2527.849 C -3041.282 2802.849 -3085.282 2976.849 -3170.282 3107.849 C -3233.282 3205.849 -3323.282 3249.849 -3395.282 3215.849 Z" style="fill: rgb(77, 77, 77);"/>
    <path d="M -6100.282 2262.849 C -6100.282 2252.849 -6093.282 2205.849 -6084.282 2157.849 L -6068.282 2069.849 L -5805.282 2069.849 C -5563.282 2069.849 -5541.282 2070.849 -5536.282 2087.849 C -5526.282 2120.849 -5510.282 2223.849 -5510.282 2251.849 L -5510.282 2279.849 L -5805.282 2279.849 C -6079.282 2279.849 -6100.282 2278.849 -6100.282 2262.849 Z" style="fill: rgb(77, 77, 77);"/>
    <path d="M -3623.282 2242.849 C -3620.282 2221.849 -3612.282 2175.849 -3606.282 2139.849 L -3595.282 2074.849 L -3329.282 2071.849 L -3063.282 2069.849 L -3051.282 2141.849 C -3044.282 2181.849 -3036.282 2229.849 -3033.282 2247.849 L -3028.282 2279.849 L -3328.282 2279.849 L -3629.282 2279.849 L -3623.282 2242.849 Z" style="fill: rgb(77, 77, 77);"/>
    <g transform="matrix(1.823096, 0, 0, 1.977961, 7864.383789, -720.193787)" fill="#000000" stroke="none" style=""/>
    <g transform="matrix(-331.085114, -18.302114, 0.937071, -485.49765, 16506.21875, 30438.494141)" style="">
      <path fill="#fff" class="accent" d="M 64.713 55.531 C 64.75 55.594 64.696 55.806 64.609 55.953 C 64.458 56.204 63.883 56.889 63.82 56.891 C 63.762 56.893 63.202 56.272 63.038 56.025 C 62.953 55.894 62.932 55.837 62.929 55.72 L 62.925 55.576 L 63.097 55.563 L 63.269 55.551 L 63.373 55.699 C 63.488 55.862 63.779 56.172 63.818 56.17 C 63.857 56.169 64.146 55.837 64.26 55.666 L 64.363 55.511 L 64.529 55.505 C 64.65 55.501 64.698 55.507 64.713 55.531 Z" style=""/>
      <path style="fill: rgb(216, 216, 216); stroke: rgb(0, 0, 0);"/>
    </g>
    <g transform="matrix(4.952111, 0, 0, 4.834711, 7907.776855, -11378.355469)" fill="#000000" stroke="none" style="" bx:origin="0.543 0.498"/>
  </g>
</svg>