<?xml version="1.0" encoding="utf-8"?>
<svg viewBox="0 0 500 500" xmlns="http://www.w3.org/2000/svg">
  <path style="fill: rgb(216, 216, 216); stroke: rgb(0, 0, 0);" d="M 15.532 33.621"/>
  <g transform="matrix(0.140687, 0, 0, -0.121656, -237.111282, 713.446411)" fill="#000000" stroke="none" style="">
    <g transform="matrix(0.776667, 0, 0, 1.553936, 2017.201294, 3783.272949)" fill="#000000" stroke="none" style="">
      <g transform="matrix(1, 0, 0, 1, -855.661499, -1254.453369)" fill="#000000" stroke="none">
        <g transform="matrix(5.685192, 0, 0, -5.019597, 1068.394897, 1779.859009)" style="">
          <path class="accent" d="M 472.629 -134.747 C 474.195 -133.413 474.804 -129.889 475.848 -115.84 C 476.282 -109.982 476.804 -105.124 476.891 -105.076 C 477.065 -104.981 482.806 -104.457 489.764 -103.886 C 525.077 -101.028 546.736 -95.646 566.306 -84.835 C 585.093 -74.5 597.357 -62.546 600.228 -51.64 C 601.445 -47.211 600.575 -43.687 597.183 -39.734 C 594.4 -36.352 586.05 -31.828 579.614 -30.161 C 574.917 -28.97 573.786 -28.875 563.261 -28.875 C 552.911 -28.875 551.519 -28.97 547.17 -30.113 C 536.82 -32.78 532.819 -35.781 525.339 -46.592 C 519.337 -55.355 515.075 -59.07 505.855 -63.785 C 498.984 -67.261 492.635 -69.547 484.893 -71.262 C 479.414 -72.5 478.109 -72.405 477.065 -70.881 C 476.717 -70.309 476.196 -55.117 476.108 -37.114 L 475.76 -4.395 L 481.675 -3.443 C 484.893 -2.919 491.156 -1.966 495.418 -1.3 C 508.899 0.748 533.428 5.463 543.343 7.892 C 559.173 11.797 568.045 15.131 579.352 21.323 C 593.617 29.181 602.489 36.849 608.403 46.612 C 613.448 54.803 614.405 59.137 613.883 70.425 C 613.361 81.236 612.057 85.665 607.186 92.904 C 599.097 105.096 584.049 116.669 566.567 124.337 C 559.26 127.528 543.952 132.529 538.646 133.481 L 534.471 134.243 L 521.077 131.576 C 485.502 124.48 456.886 121.527 382.954 117.336 C 337.725 114.764 327.2 112.526 317.458 103.477 C 304.847 91.761 298.41 77.426 302.237 69.615 C 305.89 62.09 315.11 56.756 328.94 54.232 C 333.55 53.375 335.985 53.232 342.856 53.375 C 350.424 53.518 351.902 53.708 357.73 55.327 C 368.602 58.233 372.43 61.376 380.083 73.52 C 385.128 81.379 394.696 91.856 400.35 95.619 C 402.872 97.333 407.743 99.857 411.048 101.239 C 416.876 103.715 435.315 109.002 438.012 109.002 C 439.142 109.002 439.316 104.382 439.142 70.615 L 438.881 32.229 L 423.66 29.467 C 396.088 24.466 371.994 18.798 359.991 14.369 C 356.512 13.131 349.989 10.083 345.466 7.559 C 324.504 -3.967 316.415 -13.444 313.979 -29.161 C 312.327 -40.448 313.893 -51.735 318.067 -58.641 C 326.852 -73.024 341.813 -83.74 364.079 -91.598 C 381.91 -97.885 407.569 -102.695 430.966 -104.124 C 440.882 -104.743 440.012 -103.362 440.36 -118.268 C 440.621 -127.317 441.056 -131.699 441.838 -132.699 C 443.23 -134.604 446.97 -136.7 450.189 -137.509 C 456.625 -139.081 469.498 -137.509 472.629 -134.747 Z M 436.011 -72.929 C 432.88 -72.881 423.747 -70.738 416.354 -68.214 C 393.478 -60.498 387.129 -54.831 387.129 -41.972 C 387.129 -27.637 395.044 -21.874 426.704 -13.254 C 438.62 -10.015 438.186 -10.015 438.968 -13.254 C 439.838 -17.016 439.925 -68.928 439.055 -71.167 C 438.447 -72.691 438.012 -72.929 436.011 -72.929 Z M 476.978 39.801 C 476.543 40.563 476.282 55.899 476.282 73.997 C 476.282 108.668 476.369 109.525 480.197 110.192 C 482.023 110.526 495.679 107.858 503.681 105.668 C 515.771 102.382 526.991 96.619 533.602 90.38 C 542.213 82.188 543.43 68.091 536.298 60.09 C 529.253 52.279 513.075 45.516 490.199 40.754 C 478.283 38.277 477.761 38.23 476.978 39.801 Z" fill="#fff" style=""/>
        </g>
      </g>
    </g>
    <path d="M 1749.911 3860.939 L 1733.397 3843.479 L 1733.397 3318.196 L 1733.397 2792.542 L 1753.752 2773.225 L 1774.107 2753.908 L 1930.034 2753.908 L 2085.961 2753.908 L 2105.547 2775.825 L 2125.135 2797.743 L 2125.135 3317.825 L 2125.135 3837.907 L 2107.467 3858.71 L 2089.801 3879.513 L 1927.729 3879.142 L 1766.042 3878.77 L 1749.911 3860.939 Z" style="fill: rgb(91, 91, 91);"/>
    <path d="M 2872.123 3821.19 C 2819.123 3819.332 2743.464 3812.646 2687.777 3804.844 C 2484.226 3776.24 2271.075 3724.232 2246.112 3697.485 C 2242.272 3693.398 2238.047 3682.997 2236.126 3674.453 C 2233.822 3661.45 2232.286 3392.494 2232.67 3011.72 L 2232.67 2947.824 L 2250.337 2934.079 C 2273.38 2915.876 2286.437 2911.79 2352.495 2902.502 C 2424.698 2892.101 2450.046 2886.157 2491.908 2870.183 C 2547.98 2848.637 2673.183 2793.285 2890.941 2692.984 C 3073.753 2608.656 3118.303 2588.224 3213.932 2545.875 C 3350.657 2485.322 3469.33 2438.144 3515.417 2426.256 C 3544.605 2418.826 3556.511 2417.712 3628.713 2418.083 C 3735.097 2418.083 3824.966 2429.228 4284.681 2499.81 C 4330.383 2506.497 4396.826 2515.784 4432.542 2520.242 C 4507.434 2529.158 4518.955 2531.387 4556.593 2544.389 C 4613.432 2564.078 4659.519 2590.453 4838.489 2705.986 C 5088.894 2867.583 5159.56 2927.392 5182.22 2997.975 C 5193.357 3033.266 5192.589 3044.782 5176.459 3061.87 C 5169.162 3069.672 5156.872 3080.073 5149.575 3084.903 C 5142.278 3089.732 5136.133 3095.304 5136.133 3097.162 C 5136.133 3098.648 5144.966 3110.907 5155.335 3123.537 C 5181.451 3155.485 5191.437 3177.774 5188.365 3198.206 C 5182.988 3236.098 5151.88 3272.875 5108.865 3292.564 C 5047.8 3320.425 4963.308 3315.596 4871.902 3279.562 C 4824.663 3260.987 4788.562 3238.698 4724.809 3189.29 C 4599.991 3092.332 4565.425 3074.501 4447.521 3047.382 C 4345.362 3023.979 4229.377 3013.577 4066.537 3013.206 C 3899.857 3012.834 3848.778 3022.493 3707.445 3079.702 C 3685.17 3088.617 3640.235 3106.449 3607.59 3118.708 L 3548.061 3141.74 L 3563.423 3145.455 C 3599.525 3154.742 3919.828 3148.798 4147.189 3134.31 C 4224.768 3129.481 4261.253 3126.138 4353.042 3115.736 C 4402.202 3110.164 4465.571 3131.338 4502.057 3165.887 C 4545.839 3207.122 4583.476 3282.162 4584.244 3329.713 C 4585.013 3369.09 4561.585 3408.096 4512.426 3447.845 C 4477.093 3476.45 4409.5 3501.711 4305.036 3525.115 C 4180.601 3552.976 4098.029 3564.864 3893.711 3584.181 C 3763.132 3596.44 3705.141 3603.87 3678.64 3611.671 C 3657.517 3617.615 3629.098 3629.503 3567.265 3658.479 C 3368.708 3751.35 3276.15 3782.927 3142.882 3804.844 C 3068.376 3817.104 2951.239 3824.162 2872.123 3821.19 Z" style="fill: rgb(140, 140, 140);"/>
  </g>
</svg>