<?xml version="1.0" encoding="utf-8"?>
<svg viewBox="0 0 500 500" xmlns="http://www.w3.org/2000/svg">
  <defs>
    <path id="path-0" d="M 57.598 197.917 C 99.236 191.572 122.833 193.627 144.608 193.627 C 174.837 193.627 205.065 193.627 235.294 193.627 C 297.51 193.627 337.758 199.308 375.613 207.721 C 450.169 219.331 514.358 250.609 582.721 265.931 C 603.882 270.674 625.094 270.67 646.446 272.672 C 681.068 272.672 699.805 267.381 719.363 262.868 C 761.126 255.943 791.085 249.69 822.917 245.711 C 834.699 245.098 845.065 240.809 855.392 240.809 C 885.645 240.809 910.366 240.59 935.049 242.647 C 951.529 244.02 970.627 248.162 987.132 248.162 C 997.652 251.464 993.873 264.336 993.873 273.284 C 990.67 313.695 977.265 339.989 958.333 367.034 C 933.64 384.04 915.782 397.195 896.446 406.863 C 892.448 408.862 864.395 415.817 860.294 424.02 C 822.34 424.02 787.093 427.014 751.226 422.794 C 709.945 416.284 678.141 405.025 649.51 405.025 C 590.55 391.006 536.72 388.441 486.52 380.515 C 424.122 372.56 379.523 359.1 333.333 352.941 C 293.651 346.375 261.495 339.587 232.843 344.363 L 227.328 344.363 C 209.021 347.691 188.097 352.941 169.73 352.941" style="fill: none;"/>
  </defs>
  <g transform="matrix(1.121534, 0, 0, 1.258296, 319.214111, 183.975723)" style="">
    <path fill="#fff" class="accent" d="M -73.362 -64.42 C -63.44 -63.192 -56.108 -61.158 -47.02 -57.091 C -32.049 -50.452 -19.668 -39.593 -11.765 -26.24 C -5.136 -15.036 -2.326 -4.1 -2.809 9.1 C -3.028 16.928 -3.95 21.494 -6.848 29.36 C -16.814 56.373 -44.956 75.713 -77.972 78.168 C -96.367 79.511 -114.543 75.482 -129.953 66.619 L -134.08 64.24 L -141.061 70.341 L -147.998 76.403 L -148.129 80.624 C -148.305 85.612 -149.227 88.03 -152.125 91.445 C -153.178 92.673 -168.325 106.141 -185.799 121.336 C -216.355 147.928 -217.716 149.079 -220.921 150.422 C -229.263 153.99 -238.219 152.839 -244.98 147.39 C -251.917 141.75 -253.629 132.387 -249.107 124.79 C -248.229 123.293 -240.151 116.041 -215.433 94.515 C -197.521 78.936 -181.891 65.621 -180.706 64.892 C -177.15 62.743 -173.901 61.937 -168.983 61.861 L -164.681 61.822 L -157.7 55.721 L -150.72 49.62 L -153.134 46.589 C -157.876 40.488 -161.959 32.468 -164.154 24.986 C -166.437 17.273 -167.008 12.553 -166.744 4.457 C -166.349 -6.939 -163.979 -15.228 -158.271 -25.281 C -150.149 -39.593 -137.285 -50.798 -120.997 -57.705 C -112.48 -61.35 -106.026 -63.077 -96.411 -64.381 C -91.055 -65.11 -79.113 -65.11 -73.362 -64.42 Z M -91.582 -44.428 C -95.577 -43.891 -100.143 -42.932 -103.348 -41.972 C -123.939 -35.833 -139.041 -20.523 -142.554 -2.258 C -143.519 2.692 -143.519 10.827 -142.598 15.431 C -138.778 34.233 -123.06 49.889 -102.338 55.491 C -81.923 61.016 -59.971 56.604 -44.605 43.903 C -33.937 35.077 -27.966 24.41 -26.385 11.364 C -25.814 6.721 -26.078 2.116 -27.307 -3.524 C -29.458 -13.386 -34.946 -22.288 -43.464 -29.732 C -51.542 -36.754 -61.464 -41.435 -73.142 -43.699 C -76.128 -44.275 -88.86 -44.774 -91.582 -44.428 Z" style=""/>
    <path fill="#4D4D4D" d="M 38.738 15.678 C 39.172 16.324 38.741 14.154 38.657 12.871 C 38.62 12.3 38.588 11.118 38.086 10.494 C 37.701 10.015 36.973 9.759 36.292 9.621 C 35.473 9.455 34.724 9.462 34.724 9.462 C 34.758 9.412 35.075 9.183 35.391 8.88 C 35.676 8.607 35.96 8.274 36.036 7.957 C 36.139 7.531 36.092 7.035 35.945 6.597 C 35.779 6.099 35.482 5.677 35.129 5.523 C 34.54 5.267 34.098 5.085 33.737 4.978 C 33.389 4.874 33.116 4.838 32.854 4.867 C 32.854 4.867 31.286 5.359 30.764 5.745 C 30.522 5.925 30.241 6.24 30.107 6.714 C 29.986 7.139 29.997 7.714 30.059 8.069 C 30.116 8.39 30.343 8.722 30.595 9.005 C 30.97 9.427 31.401 9.739 31.401 9.739 L 29.695 9.961 L 28.269 10.727 C 28.056 10.733 27.928 13.404 28.007 13.402 L 28.475 16.085 C 31.07 16.174 35.5 15.995 38.738 15.678 Z" style="" transform="matrix(0.999422, 0.029939, -0.038596, 0.999422, 0.423915, -0.995583)"/>
    <path style="fill: rgb(216, 216, 216); stroke: rgb(0, 0, 0);"/>
  </g>
  <g transform="matrix(0.051739, 0, 0, -0.052985, 11.298036, 450.559082)" fill="#000000" stroke="none" style="">
    <path d="M7810 4000 l0 -3450 358 2 c196 2 356 6 355 11 -2 4 -3 1555 -3 3447 l0 3440 -355 0 -355 0 0 -3450z" style="fill: rgb(140, 140, 140);"/>
    <path d="M6330 5913 c0 -251 5 -425 11 -453 35 -150 51 -278 56 -460 6 -215 -3 -330 -43 -527 l-24 -122 0 -1901 0 -1900 360 0 360 0 -2 2883 -3 2882 -357 3 -358 2 0 -407z" style="fill: rgb(140, 140, 140);"/>
    <path d="M5485 3120 c-3 -5 -50 -38 -103 -74 -128 -85 -337 -189 -475 -237 l-112 -39 -3 -1110 -2 -1110 355 0 355 0 0 1290 c0 710 -2 1290 -4 1290 -3 0 -8 -4 -11 -10z" style="fill: rgb(140, 140, 140);"/>
    <path d="M3180 1660 l0 -1110 360 0 360 0 0 1070 0 1069 -32 5 c-18 3 -62 11 -98 16 -36 6 -109 22 -163 36 -84 21 -121 24 -262 24 l-165 0 0 -1110z" style="fill: rgb(140, 140, 140);"/>
    <path d="M1832 1387 l-272 -272 0 -283 0 -282 355 0 355 0 0 555 0 555 -83 0 -82 0 -273 -273z" style="fill: rgb(140, 140, 140);"/>
    <path d="M0 165 l0 -165 4600 0 4600 0 0 165 0 165 -4600 0 -4600 0 0 -165z" style="fill: rgb(77, 77, 77);"/>
  </g>
</svg>