<?xml version="1.0" encoding="utf-8"?>
<svg viewBox="0 0 500 500" xmlns="http://www.w3.org/2000/svg">
  <g transform="matrix(0.1, 0, 0, -0.1, -259.371094, 520.491821)" fill="#000000" stroke="none">
    <path d="M 2925.991 4582.649 C 2870.242 4572.267 2816.352 4535.934 2781.974 4484.029 L 2754.099 4442.505 L 2754.099 2802.297 L 2754.099 1162.089 L 2777.328 1123.159 C 2807.99 1072.119 2867.455 1031.46 2927.849 1020.214 C 2963.156 1013.294 3609.838 1010.698 5155.928 1012.428 C 7129.423 1015.024 7337.55 1016.754 7367.282 1028.864 C 7415.597 1049.627 7458.338 1085.96 7481.567 1126.62 L 7502.008 1162.089 L 7502.008 2801.431 L 7502.008 4440.774 L 7475.992 4482.298 C 7443.472 4534.204 7389.581 4570.537 7329.187 4582.649 C 7271.581 4594.76 2989.172 4593.895 2925.991 4582.649 Z M 7209.329 2840.36 L 7209.329 1365.384 L 7106.194 1438.916 L 7003.06 1512.449 L 6709.451 1512.449 C 6462.299 1512.449 6417.7 1510.719 6428.85 1501.203 C 6436.283 1494.282 6504.111 1445.837 6580.3 1392.202 C 6655.561 1338.566 6716.884 1293.582 6716.884 1290.987 C 6716.884 1289.257 6661.136 1287.526 6593.308 1287.526 L 6469.732 1287.526 L 6312.707 1399.988 L 6154.754 1512.449 L 5128.983 1512.449 L 4103.212 1512.449 L 3943.4 1399.988 L 3783.587 1286.661 L 3659.082 1289.257 L 3534.577 1291.852 L 3673.948 1390.472 C 3751.067 1444.973 3819.824 1494.282 3827.257 1501.203 C 3838.407 1510.719 3793.808 1512.449 3546.656 1512.449 L 3253.048 1512.449 L 3149.914 1438.916 L 3046.779 1366.25 L 3046.779 2840.36 L 3046.779 4315.337 L 5128.054 4315.337 L 7209.329 4315.337 L 7209.329 2840.36 Z" style="fill: rgb(91, 91, 91);"/>
    <path d="M 4498.096 3930.372 L 4367.088 3744.378 L 5681.821 3744.378 L 6995.626 3744.378 L 6995.626 3930.372 L 6995.626 4116.365 L 5812.83 4116.365 L 4629.105 4116.365 L 4498.096 3930.372 Z" style="fill: rgb(140, 140, 140);"/>
    <path d="M 3326.451 4031.587 C 3292.072 4014.285 3260.481 3968.436 3260.481 3936.427 C 3260.481 3902.689 3288.356 3858.569 3320.876 3839.538 C 3399.853 3793.688 3502.058 3847.323 3502.058 3934.697 C 3502.058 4020.341 3408.215 4072.246 3326.451 4031.587 Z" style="fill: rgb(140, 140, 140);"/>
    <path d="M 3646.074 4029.857 C 3614.483 4010.825 3585.68 3965.84 3585.68 3936.427 C 3585.68 3902.689 3613.554 3858.569 3646.074 3839.538 C 3725.051 3793.688 3827.257 3847.323 3827.257 3934.697 C 3827.257 4021.206 3722.264 4076.572 3646.074 4029.857 Z" style="fill: rgb(140, 140, 140);"/>
    <path d="M 3971.274 4029.857 C 3892.297 3981.412 3893.226 3887.117 3972.203 3838.672 C 4045.605 3793.688 4152.456 3849.053 4152.456 3932.102 C 4152.456 4020.341 4047.463 4076.572 3971.274 4029.857 Z" style="fill: rgb(140, 140, 140);"/>
    <g transform="matrix(1, 0, 0, 1, 8970.696289, 1653.929199)" fill="#000000" stroke="none">
      <g transform="matrix(1, 0, 0, 1, 192.899948, -1239.366211)" fill="#000000" stroke="none">
        <g transform="matrix(5.685192, 0, 0, -5.019597, -5834.005859, 2451.23999)" style="">
          <path class="accent" d="M 384.983 -60.938 L 426.168 -42.153 C 448.885 -31.64 489.743 -13.027 517.036 -0.619 L 566.556 21.958 L 566.065 44.535 L 565.575 67.112 L 487.945 102.787 C 445.289 122.261 404.595 141.047 397.731 144.321 L 384.983 150.353 L 384.983 96.41 L 406.719 87.448 C 469.477 61.597 511.479 43.846 510.826 43.846 C 510.335 43.846 482.062 32.299 447.904 18.339 L 385.8 -7.168 L 385.31 -34.053 Z M 329.743 -100.922 L 348.375 -100.922 C 362.266 -100.922 367.006 -100.405 367.006 -98.854 C 366.842 -95.407 302.123 185.166 301.306 186.2 C 300.816 186.545 292.481 186.717 282.675 186.545 L 264.697 186.028 L 293.788 58.495 C 309.641 -11.649 324.35 -76.277 326.311 -85.066 Z M 247.374 -61.111 C 247.537 -61.283 247.701 -49.047 247.701 -34.225 L 247.701 -6.995 L 211.255 7.481 C 191.317 15.582 162.879 26.956 148.007 32.816 C 122.185 43.156 121.204 43.673 125.944 45.569 C 128.722 46.603 157.159 58.495 189.355 71.938 L 247.701 96.238 L 247.701 122.606 C 247.701 137.083 247.21 148.974 246.72 148.974 C 245.412 148.974 77.568 72.282 70.704 68.491 L 66.128 66.078 L 66.618 43.501 L 67.108 21.096 L 153.727 -18.542 C 201.449 -40.257 241.817 -58.698 243.615 -59.56 C 245.412 -60.421 247.047 -61.111 247.374 -61.111 Z" fill="#fff" style=""/>
        </g>
      </g>
    </g>
  </g>
</svg>