<?xml version="1.0" encoding="utf-8"?>
<svg version="1.1" x="0px" y="0px" viewBox="0 0 500 379" style="enable-background:new 0 0 50 47.1;" xmlns="http://www.w3.org/2000/svg">
  <g transform="matrix(1.230025, 0, 0, 1.396586, -167.711487, 265.610107)" style="">
    <path fill="#fff" class="accent" d="M 342.084 -100.822 C 358.55 -100.99 373.682 -95.374 385.959 -84.644 C 400.997 -71.401 406.897 -54.804 403.09 -36.363 C 400.806 -25.383 395.476 -16.581 385.959 -8.282 C 373.206 2.866 360.833 7.224 342.56 7.224 C 330.949 7.224 321.718 5.297 312.581 1.106 C 305.158 -2.331 292.595 -13.396 288.598 -20.018 C 274.132 -44.326 280.888 -73.664 304.873 -89.506 C 312.867 -94.871 321.813 -98.224 333.52 -100.403 C 334.566 -100.571 338.469 -100.739 342.084 -100.822 Z" style=""/>
    <path style="fill: rgb(216, 216, 216); stroke: rgb(0, 0, 0);"/>
  </g>
  <g transform="matrix(0.116601, 0, 0, -0.120951, -168.02681, 438.736755)" fill="#000000" stroke="none" style="">
    <path d="M 3421.755 3636.708 C 3386.755 3619.708 3342.755 3586.708 3315.755 3557.708 C 3158.755 3389.708 3218.755 3121.708 3432.755 3033.708 L 3486.755 3010.708 L 3486.755 2872.708 L 3486.755 2733.708 L 3554.755 2736.708 L 3621.755 2739.708 L 3624.755 2875.708 L 3627.755 3012.708 L 3684.755 3035.708 C 3752.755 3063.708 3822.755 3129.708 3856.755 3199.708 C 3892.755 3272.708 3892.755 3396.708 3855.755 3474.708 C 3823.755 3541.708 3768.755 3597.708 3701.755 3632.708 C 3662.755 3652.708 3633.755 3658.708 3566.755 3661.708 C 3488.755 3665.708 3476.755 3663.708 3421.755 3636.708 Z" style="fill: rgb(140, 140, 140);"/>
    <path d="M 4908.402 3150.152 C 4817.402 3104.152 4771.402 3031.152 4766.402 2927.152 L 4763.402 2856.152 L 4620.402 2773.152 C 4541.402 2727.152 4451.402 2675.152 4419.402 2657.152 C 4312.402 2598.152 4301.402 2592.152 4221.402 2544.152 C 4178.402 2518.152 4142.402 2491.152 4142.402 2484.152 C 4142.402 2474.152 4209.402 2380.152 4217.402 2380.152 C 4222.402 2380.152 4575.402 2580.152 4714.402 2663.152 C 4790.402 2708.152 4844.402 2734.152 4848.402 2728.152 C 4852.402 2723.152 4878.402 2707.152 4906.402 2694.152 C 5085.402 2610.152 5291.402 2752.152 5268.402 2943.152 C 5257.402 3038.152 5204.402 3112.152 5117.402 3151.152 C 5062.402 3176.152 4960.402 3176.152 4908.402 3150.152 Z" style="fill: rgb(77, 77, 77);"/>
    <path d="M 1986.755 3088.708 C 1898.755 3038.708 1858.755 2980.708 1849.755 2890.708 C 1838.755 2786.708 1890.755 2692.708 1985.755 2642.708 C 2028.755 2619.708 2051.755 2614.708 2105.755 2614.708 C 2169.755 2614.708 2200.755 2624.708 2262.755 2664.708 C 2282.755 2676.708 2291.755 2674.708 2352.755 2637.708 C 2390.755 2615.708 2524.755 2537.708 2650.755 2464.708 L 2879.755 2331.708 L 2907.755 2365.708 C 2947.755 2414.708 2961.755 2443.708 2950.755 2453.708 C 2941.755 2463.708 2740.755 2580.708 2499.755 2717.708 L 2356.755 2798.708 L 2356.755 2858.708 C 2356.755 3007.708 2247.755 3113.708 2096.755 3114.708 C 2045.755 3114.708 2022.755 3108.708 1986.755 3088.708 Z" style="fill: rgb(77, 77, 77);"/>
    <path d="M 1628.755 2274.708 C 1556.755 2238.708 1503.755 2182.708 1469.755 2107.708 C 1447.755 2059.708 1444.755 2042.708 1448.755 1966.708 C 1451.755 1894.708 1457.755 1870.708 1481.755 1825.708 C 1544.755 1710.708 1655.755 1649.708 1786.755 1656.708 C 1919.755 1664.708 2018.755 1731.708 2073.755 1850.708 L 2097.755 1904.708 L 2329.755 1906.708 C 2560.755 1907.708 2585.755 1908.708 2724.755 1912.708 L 2797.755 1914.708 L 2794.755 1982.708 L 2791.755 2049.708 L 2442.755 2054.708 L 2093.755 2059.708 L 2078.755 2103.708 C 2056.755 2169.708 1966.755 2256.708 1893.755 2283.708 C 1803.755 2316.708 1706.755 2312.708 1628.755 2274.708 Z" style="fill: rgb(140, 140, 140);"/>
    <path d="M 5317.287 2283.819 C 5213.287 2261.819 5124.287 2190.819 5078.287 2092.819 L 5051.287 2033.819 L 4704.287 2033.819 C 4855.809 2022.583 4382.187 2031.898 4356.287 2033.819 L 4356.287 1963.819 C 4356.287 1915.819 4360.287 1892.819 4369.287 1891.819 C 4375.287 1890.819 4531.287 1888.819 4715.287 1888.819 L 5049.287 1888.819 L 5082.287 1824.819 C 5123.287 1744.819 5153.287 1713.819 5230.287 1671.819 C 5286.287 1641.819 5298.287 1638.819 5381.287 1638.819 C 5465.287 1638.819 5475.287 1640.819 5536.287 1674.819 C 5646.287 1735.819 5706.287 1835.819 5706.287 1959.819 C 5706.287 2164.819 5515.287 2323.819 5317.287 2283.819 Z" style="fill: rgb(140, 140, 140);"/>
    <path d="M 2756.755 1550.708 C 2698.755 1515.708 2568.755 1438.708 2467.755 1379.708 L 2283.755 1271.708 L 2226.755 1302.708 C 2099.755 1372.708 1939.755 1325.708 1875.755 1201.708 C 1811.755 1078.708 1865.755 921.708 1991.755 859.708 C 2045.755 832.708 2166.755 832.708 2216.755 858.708 C 2307.755 906.708 2350.755 976.708 2351.755 1080.708 L 2351.755 1152.708 L 2490.755 1230.708 C 2566.755 1274.708 2641.755 1316.708 2655.755 1324.708 C 2669.755 1333.708 2743.755 1375.708 2819.755 1418.708 C 2894.755 1461.708 2956.755 1499.708 2956.755 1503.708 C 2956.755 1506.708 2947.755 1523.708 2935.755 1539.708 C 2924.755 1556.708 2911.755 1579.708 2906.755 1592.708 C 2901.755 1604.708 2889.755 1614.708 2879.755 1613.708 C 2869.755 1613.708 2814.755 1584.708 2756.755 1550.708 Z" style="fill: rgb(77, 77, 77);"/>
    <path d="M 4176.755 1538.708 C 4162.755 1519.708 4145.755 1496.708 4137.755 1488.708 C 4129.755 1479.708 4127.755 1469.708 4132.755 1464.708 C 4141.755 1457.708 4249.755 1393.708 4606.755 1187.708 L 4761.755 1098.708 L 4758.755 1056.708 C 4753.755 990.708 4782.755 908.708 4824.755 864.708 C 4876.755 813.708 4919.755 792.708 4992.755 786.708 C 5149.755 774.708 5281.755 911.708 5263.755 1067.708 C 5252.755 1158.708 5180.755 1245.708 5089.755 1275.708 C 5029.755 1294.708 4935.755 1283.708 4880.755 1248.708 L 4831.755 1218.708 L 4656.755 1322.708 C 4560.755 1380.708 4445.755 1447.708 4401.755 1472.708 C 4357.755 1497.708 4299.755 1530.708 4271.755 1545.708 C 4244.755 1561.708 4217.755 1574.708 4211.755 1574.708 C 4206.755 1573.708 4190.755 1558.708 4176.755 1538.708 Z" style="fill: rgb(77, 77, 77);"/>
  </g>
  <g transform="matrix(1, 0, 0, 1, 284.760114, -21.030667)">
    <path style="fill: rgb(216, 216, 216); stroke: rgb(0, 0, 0);"/>
  </g>
  <g transform="matrix(0.039234, 0, 0, -0.039322, 151.970779, 298.245636)" fill="#000000" stroke="none" style="">
    <path d="M2255 4680 c-934 -105 -1685 -784 -1870 -1693 -193 -947 273 -1900 1141 -2335 641 -321 1436 -289 2039 80 522 321 878 826 994 1408 175 887 -212 1766 -989 2245 -224 138 -499 237 -776 281 -119 18 -428 26 -539 14z m284 -936 c37 -31 51 -77 51 -165 l0 -67 70 -16 c97 -22 166 -59 230 -126 133 -138 158 -299 57 -360 -40 -25 -103 -25 -142 -2 -31 19 -33 23 -85 134 -27 60 -96 138 -122 138 -4 0 -8 -108 -8 -239 l0 -239 109 -37 c168 -56 262 -129 321 -248 139 -286 -45 -638 -367 -700 l-61 -11 -4 -176 c-2 -147 -6 -179 -21 -201 -47 -70 -148 -70 -190 1 -14 23 -17 58 -17 202 l0 173 -73 17 c-211 51 -376 215 -407 403 -8 49 -7 65 10 101 23 54 69 84 128 84 85 0 109 -26 166 -177 29 -76 88 -153 137 -178 15 -8 31 -15 34 -15 3 0 4 122 3 272 l-3 271 -67 23 c-124 41 -195 83 -257 150 -72 76 -101 146 -108 259 -16 245 120 425 365 482 l72 17 0 94 c0 94 0 94 34 128 44 44 99 47 145 8z"/>
    <path d="M2309 3270 c-19 -10 -49 -33 -67 -51 -54 -56 -65 -176 -21 -248 19 -32 102 -91 126 -91 10 0 13 43 13 205 0 113 -3 205 -7 205 -5 -1 -24 -9 -44 -20z"/>
    <path d="M2590 2264 l0 -244 36 15 c72 30 130 86 154 150 20 53 14 150 -12 197 -24 43 -93 97 -147 116 l-31 11 0 -245z"/>
  </g>
</svg>