<?xml version="1.0" encoding="utf-8"?>
<svg viewBox="0 0 500 500" xmlns="http://www.w3.org/2000/svg">
  <g transform="matrix(0.067551, 0, 0, -0.066477, 410.666565, 628.847717)" fill="#000000" stroke="none" style="">
    <path d="M -3942.555 8884.055 C -4044.555 8825.055 -4269.555 8694.055 -4442.555 8593.055 C -4615.555 8492.055 -4778.555 8398.055 -4804.555 8384.055 L -4852.555 8358.055 L -4852.555 7716.055 L -4852.555 7074.055 L -4759.555 7020.055 C -4709.555 6990.055 -4461.555 6845.055 -4209.555 6698.055 L -3751.555 6432.055 L -3202.555 6750.055 L -2653.555 7068.055 L -2653.555 7713.055 L -2652.555 8358.055 L -2715.555 8394.055 C -2771.555 8426.055 -2943.555 8526.055 -3372.555 8776.055 C -3677.555 8954.055 -3746.555 8993.055 -3751.555 8993.055 C -3755.555 8992.055 -3840.555 8944.055 -3942.555 8884.055 Z" style="fill: rgb(91, 91, 91);"/>
    <path d="M -1418.116 8930.055 C -1478.116 8895.055 -1597.116 8826.055 -1682.116 8776.055 C -2111.116 8526.055 -2283.116 8426.055 -2339.116 8394.055 L -2402.116 8358.055 L -2402.116 7713.055 L -2401.116 7068.055 L -2279.116 6999.055 C -2212.116 6960.055 -2098.116 6895.055 -2027.116 6852.055 C -1955.116 6810.055 -1763.116 6698.055 -1600.116 6604.055 L -1303.116 6432.055 L -1205.116 6489.055 C -1151.116 6520.055 -1060.116 6574.055 -1002.116 6608.055 C -944.116 6642.055 -782.116 6736.055 -642.116 6818.055 C -502.116 6899.055 -345.116 6990.055 -294.116 7020.055 L -202.116 7075.055 L -204.116 7716.055 L -207.116 8357.055 L -257.116 8386.055 C -322.116 8425.055 -875.116 8746.055 -1114.116 8885.055 C -1217.116 8944.055 -1302.116 8993.055 -1304.116 8993.055 C -1306.116 8993.055 -1357.116 8964.055 -1418.116 8930.055 Z" style="fill: rgb(91, 91, 91);"/>
    <path d="M -4977.555 6889.055 C -4988.555 6882.055 -5100.555 6816.055 -5227.555 6743.055 C -5353.555 6670.055 -5495.555 6587.055 -5542.555 6560.055 C -5589.555 6533.055 -5667.555 6487.055 -5717.555 6458.055 C -5766.555 6429.055 -5862.555 6373.055 -5929.555 6333.055 L -6052.555 6261.055 L -6052.555 5623.055 L -6052.555 4985.055 L -5935.555 4916.055 C -5870.555 4877.055 -5659.555 4755.055 -5467.555 4643.055 C -5274.555 4531.055 -5080.555 4418.055 -5034.555 4391.055 C -4962.555 4349.055 -4948.555 4344.055 -4929.555 4354.055 C -4917.555 4360.055 -4851.555 4398.055 -4782.555 4438.055 C -4713.555 4478.055 -4562.555 4566.055 -4447.555 4633.055 C -4331.555 4700.055 -4148.555 4807.055 -4040.555 4870.055 L -3843.555 4985.055 L -3843.555 5623.055 L -3843.555 6262.055 L -4285.555 6519.055 C -4528.555 6660.055 -4747.555 6788.055 -4772.555 6803.055 C -4830.555 6838.055 -4948.555 6903.055 -4953.555 6902.055 C -4955.555 6902.055 -4966.555 6896.055 -4977.555 6889.055 Z" style="fill: rgb(140, 140, 140);"/>
    <path d="M -242.555 6854.055 C -289.555 6828.055 -410.555 6758.055 -512.555 6698.055 C -614.555 6639.055 -749.555 6560.055 -812.555 6523.055 C -875.555 6487.055 -1002.555 6413.055 -1094.555 6359.055 L -1261.555 6262.055 L -1261.555 5623.055 L -1261.555 4985.055 L -1064.555 4870.055 C -956.555 4807.055 -772.555 4700.055 -657.555 4633.055 C -541.555 4566.055 -391.555 4478.055 -322.555 4438.055 C -253.555 4398.055 -187.555 4360.055 -175.555 4354.055 C -156.555 4344.055 -142.555 4349.055 -70.555 4391.055 C -24.555 4418.055 170.445 4531.055 362.445 4643.055 C 555.445 4755.055 765.445 4877.055 830.445 4916.055 L 947.445 4985.055 L 947.445 5623.055 L 947.445 6260.055 L 890.445 6295.055 C 858.445 6315.055 789.445 6355.055 737.445 6385.055 C 685.445 6415.055 575.445 6479.055 492.445 6528.055 C 410.445 6576.055 326.445 6624.055 307.445 6635.055 C -59.555 6848.055 -153.555 6903.055 -155.555 6903.055 C -156.555 6903.055 -195.555 6881.055 -242.555 6854.055 Z" style="fill: rgb(140, 140, 140);"/>
    <path d="M -3967.555 4688.055 C -4082.555 4620.055 -4328.555 4477.055 -4512.555 4370.055 L -4847.555 4175.055 L -4847.555 3532.055 L -4847.555 2889.055 L -4507.555 2691.055 C -4320.555 2582.055 -4074.555 2439.055 -3960.555 2373.055 L -3752.555 2252.055 L -3720.555 2269.055 C -3702.555 2278.055 -3624.555 2323.055 -3547.555 2368.055 C -3470.555 2413.055 -3237.555 2549.055 -3030.555 2669.055 L -2652.555 2888.055 L -2653.555 3533.055 L -2653.555 4178.055 L -2900.555 4321.055 C -3036.555 4399.055 -3282.555 4542.055 -3447.555 4638.055 C -3612.555 4734.055 -3749.555 4813.055 -3752.555 4812.055 C -3755.555 4812.055 -3851.555 4756.055 -3967.555 4688.055 Z" style="fill: rgb(91, 91, 91);"/>
    <path d="M -1904.555 4495.055 L -2451.555 4178.055 L -2451.555 3533.055 L -2452.555 2888.055 L -2319.555 2812.055 C -2247.555 2769.055 -2068.555 2666.055 -1922.555 2581.055 C -1776.555 2496.055 -1588.555 2387.055 -1504.555 2339.055 L -1352.555 2251.055 L -849.555 2544.055 C -573.555 2705.055 -326.555 2848.055 -300.555 2862.055 L -252.555 2888.055 L -252.555 3530.055 L -252.555 4172.055 L -344.555 4226.055 C -514.555 4327.055 -1352.555 4813.055 -1354.555 4813.055 C -1356.555 4813.055 -1603.555 4670.055 -1904.555 4495.055 Z" style="fill: rgb(91, 91, 91);"/>
    <g transform="matrix(2.355465, 0, 0, 2.394902, -16753.414062, 3934.538086)" fill="#000000" stroke="none" style="">
      <g transform="matrix(1, 0, 0, 1, -855.661499, -1254.453369)" fill="#000000" stroke="none">
        <g transform="matrix(5.685192, 0, 0, -5.019597, 1068.394897, 1779.859009)" style="">
          <path class="accent" d="M 1019.192 -131.029 L 1029.141 -131.029 L 1029.141 -115.137 L 1035.995 -113.511 C 1052.356 -109.882 1062.747 -98.495 1065.179 -81.226 L 1065.953 -75.971 L 1048.044 -75.971 L 1046.718 -81.226 C 1046.055 -84.229 1044.507 -88.234 1043.18 -90.236 C 1041.08 -93.489 1033.673 -98.369 1030.578 -98.495 C 1029.473 -98.495 1029.141 -92.363 1029.141 -71.591 L 1029.141 -44.813 L 1033.894 -43.436 C 1052.466 -37.93 1061.089 -31.674 1066.064 -19.661 C 1067.943 -15.031 1068.385 -11.652 1068.385 -0.891 C 1068.385 11.497 1068.164 12.874 1064.737 20.632 C 1059.762 32.144 1051.361 40.778 1041.633 44.157 C 1037.653 45.534 1033.231 46.66 1031.794 46.66 C 1029.251 46.66 1029.141 47.035 1029.141 54.793 L 1029.141 62.927 L 1019.192 62.927 L 1019.192 54.793 C 1019.192 47.035 1019.081 46.66 1016.539 46.66 C 1011.896 46.66 999.957 41.78 994.54 37.775 C 991.665 35.648 987.686 31.268 985.807 28.14 C 982.048 22.009 978.289 9.871 978.289 3.989 L 978.289 0.36 L 995.645 0.36 L 996.972 7.243 C 999.293 18.63 1009.132 30.267 1016.76 30.392 L 1019.192 30.392 L 1018.971 0.861 L 1018.639 -28.796 L 1012.006 -30.798 C 997.414 -35.428 985.585 -46.314 982.601 -58.077 C 980.5 -66.21 980.721 -78.974 983.153 -86.857 C 987.023 -99.996 998.74 -110.507 1012.78 -113.636 L 1019.192 -115.137 Z M 1017.312 -98.369 C 1011.453 -98.119 1004.047 -92.113 1001.394 -85.481 C 998.962 -79.224 998.63 -66.085 1000.841 -61.205 C 1003.494 -55.449 1009.464 -50.444 1016.76 -47.941 L 1019.192 -47.065 L 1019.192 -72.717 C 1019.192 -96.492 1019.081 -98.495 1017.312 -98.369 Z M 1032.236 -25.292 L 1029.141 -26.168 L 1029.141 31.519 L 1034.005 29.892 C 1045.502 26.013 1050.587 17.253 1050.698 1.612 C 1050.698 -10.651 1048.265 -16.282 1040.638 -21.037 C 1037.653 -22.914 1033.894 -24.916 1032.236 -25.292 Z" fill="#fff" style=""/>
        </g>
      </g>
    </g>
    <g transform="matrix(1.480363, 0, 0, 1.50428, 1743.64917, 3954.990723)" fill="#000000" stroke="none"/>
  </g>
  <g transform="matrix(0.1, 0, 0, -0.1, -382.822723, 433.36972)" fill="#000000" stroke="none">
    <g transform="matrix(1, 0, 0, 1, -424.083649, -1015.949829)" fill="#000000" stroke="none"/>
  </g>
</svg>