<?xml version="1.0" encoding="utf-8"?>
<svg viewBox="0 0 500 500" xmlns="http://www.w3.org/2000/svg">
  <g transform="matrix(0.067551, 0, 0, -0.066477, 410.666565, 628.847717)" fill="#000000" stroke="none" style="">
    <path d="M -3858.49 8747.378 C -3960.49 8688.378 -4185.49 8557.378 -4358.49 8456.378 C -4531.49 8355.378 -4694.49 8261.378 -4720.49 8247.378 L -4768.49 8221.378 L -4768.49 7579.378 L -4768.49 6937.378 L -4675.49 6883.378 C -4625.49 6853.378 -4377.49 6708.378 -4125.49 6561.378 L -3667.49 6295.378 L -3118.49 6613.378 L -2569.49 6931.378 L -2569.49 7576.378 L -2568.49 8221.378 L -2631.49 8257.378 C -2687.49 8289.378 -2859.49 8389.378 -3288.49 8639.378 C -3593.49 8817.378 -3662.49 8856.378 -3667.49 8856.378 C -3671.49 8855.378 -3756.49 8807.378 -3858.49 8747.378 Z" style="fill: rgb(91, 91, 91);"/>
    <path d="M -1384.49 8793.378 C -1444.49 8758.378 -1563.49 8689.378 -1648.49 8639.378 C -2077.49 8389.378 -2249.49 8289.378 -2305.49 8257.378 L -2368.49 8221.378 L -2368.49 7576.378 L -2367.49 6931.378 L -2245.49 6862.378 C -2178.49 6823.378 -2064.49 6758.378 -1993.49 6715.378 C -1921.49 6673.378 -1729.49 6561.378 -1566.49 6467.378 L -1269.49 6295.378 L -1171.49 6352.378 C -1117.49 6383.378 -1026.49 6437.378 -968.49 6471.378 C -910.49 6505.378 -748.49 6599.378 -608.49 6681.378 C -468.49 6762.378 -311.49 6853.378 -260.49 6883.378 L -168.49 6938.378 L -170.49 7579.378 L -173.49 8220.378 L -223.49 8249.378 C -288.49 8288.378 -841.49 8609.378 -1080.49 8748.378 C -1183.49 8807.378 -1268.49 8856.378 -1270.49 8856.378 C -1272.49 8856.378 -1323.49 8827.378 -1384.49 8793.378 Z" style="fill: rgb(91, 91, 91);"/>
    <path d="M -4893.49 6752.378 C -4904.49 6745.378 -5016.49 6679.378 -5143.49 6606.378 C -5269.49 6533.378 -5411.49 6450.378 -5458.49 6423.378 C -5505.49 6396.378 -5583.49 6350.378 -5633.49 6321.378 C -5682.49 6292.378 -5778.49 6236.378 -5845.49 6196.378 L -5968.49 6124.378 L -5968.49 5486.378 L -5968.49 4848.378 L -5851.49 4779.378 C -5786.49 4740.378 -5575.49 4618.378 -5383.49 4506.378 C -5190.49 4394.378 -4996.49 4281.378 -4950.49 4254.378 C -4878.49 4212.378 -4864.49 4207.378 -4845.49 4217.378 C -4833.49 4223.378 -4767.49 4261.378 -4698.49 4301.378 C -4629.49 4341.378 -4478.49 4429.378 -4363.49 4496.378 C -4247.49 4563.378 -4064.49 4670.378 -3956.49 4733.378 L -3759.49 4848.378 L -3759.49 5486.378 L -3759.49 6125.378 L -4201.49 6382.378 C -4444.49 6523.378 -4663.49 6651.378 -4688.49 6666.378 C -4746.49 6701.378 -4864.49 6766.378 -4869.49 6765.378 C -4871.49 6765.378 -4882.49 6759.378 -4893.49 6752.378 Z" style="fill: rgb(140, 140, 140);"/>
    <path d="M -158.49 6717.378 C -205.49 6691.378 -326.49 6621.378 -428.49 6561.378 C -530.49 6502.378 -665.49 6423.378 -728.49 6386.378 C -791.49 6350.378 -918.49 6276.378 -1010.49 6222.378 L -1177.49 6125.378 L -1177.49 5486.378 L -1177.49 4848.378 L -980.49 4733.378 C -872.49 4670.378 -688.49 4563.378 -573.49 4496.378 C -457.49 4429.378 -307.49 4341.378 -238.49 4301.378 C -169.49 4261.378 -103.49 4223.378 -91.49 4217.378 C -72.49 4207.378 -58.49 4212.378 13.51 4254.378 C 59.51 4281.378 254.51 4394.378 446.51 4506.378 C 639.51 4618.378 849.51 4740.378 914.51 4779.378 L 1031.51 4848.378 L 1031.51 5486.378 L 1031.51 6123.378 L 974.51 6158.378 C 942.51 6178.378 873.51 6218.378 821.51 6248.378 C 769.51 6278.378 659.51 6342.378 576.51 6391.378 C 494.51 6439.378 410.51 6487.378 391.51 6498.378 C 24.51 6711.378 -69.49 6766.378 -71.49 6766.378 C -72.49 6766.378 -111.49 6744.378 -158.49 6717.378 Z" style="fill: rgb(140, 140, 140);"/>
    <path d="M -3883.49 4551.378 C -3998.49 4483.378 -4244.49 4340.378 -4428.49 4233.378 L -4763.49 4038.378 L -4763.49 3395.378 L -4763.49 2752.378 L -4423.49 2554.378 C -4236.49 2445.378 -3990.49 2302.378 -3876.49 2236.378 L -3668.49 2115.378 L -3636.49 2132.378 C -3618.49 2141.378 -3540.49 2186.378 -3463.49 2231.378 C -3386.49 2276.378 -3153.49 2412.378 -2946.49 2532.378 L -2568.49 2751.378 L -2569.49 3396.378 L -2569.49 4041.378 L -2816.49 4184.378 C -2952.49 4262.378 -3198.49 4405.378 -3363.49 4501.378 C -3528.49 4597.378 -3665.49 4676.378 -3668.49 4675.378 C -3671.49 4675.378 -3767.49 4619.378 -3883.49 4551.378 Z" style="fill: rgb(91, 91, 91);"/>
    <path d="M -1820.49 4358.378 L -2367.49 4041.378 L -2367.49 3396.378 L -2368.49 2751.378 L -2235.49 2675.378 C -2163.49 2632.378 -1984.49 2529.378 -1838.49 2444.378 C -1692.49 2359.378 -1504.49 2250.378 -1420.49 2202.378 L -1268.49 2114.378 L -765.49 2407.378 C -489.49 2568.378 -242.49 2711.378 -216.49 2725.378 L -168.49 2751.378 L -168.49 3393.378 L -168.49 4035.378 L -260.49 4089.378 C -430.49 4190.378 -1268.49 4676.378 -1270.49 4676.378 C -1272.49 4676.378 -1519.49 4533.378 -1820.49 4358.378 Z" style="fill: rgb(91, 91, 91);"/>
    <g transform="matrix(1.480363, 0, 0, 1.50428, -15020.552734, 4358.574707)" fill="#000000" stroke="none">
      <g transform="matrix(1, 0, 0, 1, -855.661499, -1254.453369)" fill="#000000" stroke="none">
        <g transform="matrix(5.685192, 0, 0, -5.019597, 1068.394897, 1779.859009)" style="">
          <path class="accent" d="M 1455.496 -202.552 C 1460.903 -202.552 1466.067 -202.805 1471.012 -203.32 C 1486.621 -193.285 1515.179 -174.831 1563.915 -143.221 L 1584.114 -130.11 L 1584.114 40.599 L 1519.001 82.845 L 1454.007 125.092 L 1446.522 120.192 C 1442.482 117.543 1413.252 98.473 1381.527 77.945 L 1323.9 40.599 L 1323.9 -130.11 L 1388.657 -172.092 C 1408.022 -184.683 1425.634 -195.945 1437.796 -203.563 C 1443.398 -202.885 1449.287 -202.552 1455.496 -202.552 Z" fill="#fff" style=""/>
        </g>
      </g>
    </g>
  </g>
  <g transform="matrix(0.1, 0, 0, -0.1, -382.822723, 433.36972)" fill="#000000" stroke="none">
    <g transform="matrix(1, 0, 0, 1, -424.083649, -1015.949829)" fill="#000000" stroke="none"/>
  </g>
</svg>