<?xml version="1.0" encoding="utf-8"?>
<svg viewBox="0 0 500 500" xmlns="http://www.w3.org/2000/svg">
  <g transform="matrix(0.1, 0, 0, -0.092869, 15.069184, 483.572815)" fill="#000000" stroke="none" style="">
    <path d="M 4245.534 1659.896 L 4245.534 3840.556 L 3409.056 3840.556 L 3409.056 4991.836 L 849.308 4991.836 L 849.308 1659.896 Z" style="fill: rgb(140, 140, 140);"/>
    <path d="M815 5104 c-45 -23 -76 -55 -96 -99 -18 -39 -19 -128 -19 -2445 l0 -2406 23 -44 c12 -24 39 -58 60 -74 l39 -31 1738 0 1738 0 39 31 c21 16 48 50 61 74 l22 44 0 1886 c-1 1460 -3 1890 -13 1906 -20 33 -993 1140 -1018 1158 -21 15 -139 16 -1284 16 -1122 0 -1263 -2 -1290 -16z m2407 -725 l3 -531 33 -29 32 -29 460 0 460 0 0 -1035 0 -1035 -1650 0 -1650 0 0 1595 0 1595 1155 0 1154 0 3 -531z m-1602 -2794 c30 -3 85 -15 121 -26 l66 -21 -28 -100 c-15 -55 -30 -102 -31 -104 -2 -2 -33 6 -68 17 -83 26 -202 35 -258 20 -23 -7 -57 -24 -74 -40 -25 -22 -31 -35 -31 -69 0 -71 39 -106 178 -162 104 -41 208 -97 252 -135 137 -118 142 -348 9 -480 -112 -112 -312 -158 -523 -121 -107 19 -206 53 -200 69 2 7 14 55 27 107 l23 95 86 -29 c111 -38 258 -48 326 -21 62 23 85 56 85 118 0 44 -4 53 -37 86 -24 24 -68 50 -118 70 -216 87 -303 150 -351 256 -22 48 -26 67 -23 133 9 189 149 315 377 341 66 8 82 8 192 -4z m1108 -6 c84 -16 188 -74 257 -144 70 -70 124 -169 151 -275 22 -87 22 -264 0 -350 -38 -148 -125 -279 -223 -337 -24 -14 -43 -29 -43 -34 0 -9 34 -19 182 -53 74 -17 102 -27 100 -37 -3 -14 -63 -182 -67 -186 -3 -5 -285 93 -393 135 -56 23 -137 46 -180 52 -156 23 -273 79 -360 175 -100 110 -152 257 -152 435 0 125 21 217 70 317 122 246 363 357 658 302z m882 -494 l0 -495 245 0 245 0 0 -110 0 -110 -375 0 -375 0 0 605 0 605 130 0 130 0 0 -495z" style="fill: rgb(91, 91, 91);"/>
    <path d="M2522 1380 c-148 -30 -242 -191 -242 -413 1 -247 117 -407 296 -407 136 0 237 88 279 245 22 80 22 251 0 329 -49 183 -177 277 -333 246z" style="fill: rgb(91, 91, 91);"/>
    <g transform="matrix(1, 0, 0, 1.076786, 3833.092041, 1474.14856)" fill="#000000" stroke="none">
      <g transform="matrix(1, 0, 0, 1, -855.661499, -1254.453369)" fill="#000000" stroke="none">
        <path d="M 4696.961 4713.459 C 4642.737 4709.621 4530.484 4692.347 4520.02 4685.63 C 4516.215 4683.71 4527.63 4649.163 4545.705 4609.818 C 4623.711 4439.96 4657.958 4233.636 4658.909 3938.065 C 4658.909 3751.894 4656.055 3713.508 4636.078 3616.584 C 4607.539 3474.556 4569.487 3367.076 4506.702 3245.201 L 4457.234 3147.317 L 4515.263 3119.487 C 4687.448 3034.079 4891.026 3041.756 5057.503 3140.6 C 5272.496 3267.273 5412.336 3517.74 5438.973 3822.908 C 5447.534 3915.034 5427.557 4160.703 5404.726 4259.547 C 5355.259 4474.507 5231.59 4616.535 5045.136 4676.033 C 4957.616 4703.863 4799.701 4721.137 4696.961 4713.459 Z" style="fill: rgb(140, 140, 140); visibility: hidden;"/>
        <g transform="matrix(5.685192, 0, 0, -5.019597, -1139.151978, 1937.091675)" style="">
          <path class="accent" d="M 223.514 -258.61 C 225.801 -250.655 225.801 -251.58 225.801 -174.984 C 225.801 -172.394 225.801 -156.668 225.801 -139.832 C 225.801 -122.996 225.801 -107.825 225.801 -106.16 C 225.801 -104.31 226.153 -90.804 226.505 -76.003 C 227.736 -41.22 227.208 -38.815 216.478 -27.529 C 199.593 -9.768 168.283 1.703 126.772 5.403 C 63.098 11.138 0.303 -7.918 -13.945 -37.52 C -17.111 -43.995 -17.463 -47.511 -16.583 -73.782 C -16.231 -89.693 -15.88 -104.31 -15.88 -106.16 C -15.88 -107.825 -15.88 -122.996 -15.88 -139.832 C -15.88 -156.668 -15.88 -172.394 -15.88 -174.984 C -15.88 -229.748 -15.704 -242.514 -15 -247.139 C -14.648 -250.285 -14.121 -254.54 -14.121 -256.76 C -13.065 -272.856 24.928 -290.987 68.023 -295.983 C 139.612 -304.123 215.423 -285.992 223.514 -258.61 Z M 10.505 -212.542 L -3.215 -219.572 L -3.215 -203.476 C -3.215 -186.825 -1.632 -182.57 8.218 -173.689 C 14.902 -167.399 33.019 -159.258 50.433 -154.263 C 66.615 -149.823 71.013 -149.453 103.202 -149.268 C 131.345 -149.083 141.371 -149.823 153.156 -152.413 C 180.596 -158.888 202.583 -170.544 209.619 -182.385 C 212.433 -187.195 213.136 -191.636 213.136 -204.586 C 213.136 -220.313 212.961 -220.683 209.97 -217.907 C 208.211 -216.057 201.703 -212.542 195.547 -209.952 C 159.137 -194.411 89.306 -190.71 40.583 -201.626 C 31.085 -203.846 18.244 -208.472 10.505 -212.542 Z M 6.811 -147.047 L -3.215 -153.523 L -3.215 -116.705 L 3.469 -108.935 C 12.088 -98.944 33.547 -88.213 56.062 -83.033 C 80.863 -77.113 128.882 -77.113 154.036 -82.848 C 170.042 -86.548 195.547 -97.649 202.583 -104.124 C 211.729 -112.265 213.136 -116.52 213.136 -135.762 C 213.136 -153.338 212.961 -154.078 210.146 -151.488 C 205.045 -146.862 186.752 -137.797 174.088 -133.727 C 132.4 -120.221 64.856 -121.701 26.511 -136.872 C 21.234 -139.092 12.264 -143.532 6.811 -147.047 Z M 4.7 -79.518 L -3.215 -85.068 L -3.215 -66.937 C -3.215 -50.841 -2.687 -48.066 0.655 -43.44 C 9.801 -31.044 24.752 -22.719 50.433 -15.503 C 66.615 -11.063 71.013 -10.693 103.202 -10.508 C 131.345 -10.323 141.371 -11.063 153.156 -13.653 C 180.596 -20.129 202.583 -31.784 209.619 -43.625 C 212.433 -48.436 213.136 -52.876 213.136 -67.492 L 213.136 -85.253 L 205.925 -79.703 C 196.602 -72.672 175.847 -64.347 156.85 -60.091 C 144.889 -57.316 134.511 -56.576 104.081 -56.576 C 62.922 -56.761 46.915 -59.351 23.521 -69.157 C 17.541 -71.747 9.098 -76.373 4.7 -79.518 Z" fill="#fff" style=""/>
        </g>
      </g>
    </g>
  </g>
</svg>