<?xml version="1.0" encoding="utf-8"?>
<svg viewBox="0 0 500 500" xmlns="http://www.w3.org/2000/svg">
  <g transform="matrix(0.235446, 0, 0, -0.293455, -333.302917, 695.363037)" fill="#000000" stroke="none" style="">
    <g transform="matrix(0.914421, 0, 0, 0.913102, -353.121277, 1587.555298)" fill="#000000" stroke="none" style="">
      <g transform="matrix(1, 0, 0, 1, -855.661499, -1254.453369)" fill="#000000" stroke="none">
        <g transform="matrix(5.685192, 0, 0, -5.019597, 8140.783691, 3182.032959)" style="">
          <path class="accent" d="M -772.971 284.634 L -627.365 284.634 L -627.365 337.045 L -772.92 337.045 L -772.92 310.839 Z" fill="#fff" style=""/>
        </g>
      </g>
    </g>
  </g>
  <g transform="matrix(0.091442, 0, 0, -0.09131, -493.425812, 496.598816)" fill="#000000" stroke="none" style=""/>
  <g transform="matrix(0.061968, 0, 0, -0.0613, -43.462212, 518.792908)" fill="#000000" stroke="none" style="">
    <path d="M1582 8030 c-208 -55 -371 -223 -417 -433 -14 -65 -15 -309 -13 -2452 l3 -2380 27 -73 c78 -214 263 -362 483 -388 l52 -6 6 -132 c4 -72 7 -167 7 -210 2 -341 157 -693 420 -956 218 -218 489 -358 789 -406 120 -19 341 -19 456 1 570 98 1022 518 1164 1083 30 117 41 239 41 440 l0 182 1613 0 c1052 0 1635 4 1677 10 121 20 258 74 360 143 139 95 268 261 320 413 56 161 53 19 55 2184 1 1097 -1 2065 -6 2150 -6 127 -12 171 -34 240 -100 316 -369 548 -695 600 -92 14 -4771 14 -4860 -1 -93 -15 -204 -54 -284 -99 l-68 -40 -38 30 c-21 16 -65 43 -98 60 -112 55 -152 60 -537 59 -312 0 -358 -2 -423 -19z m718 -2856 l0 -2300 -287 0 -288 1 -1 2295 c0 1262 1 2297 2 2300 1 3 131 5 288 5 l286 0 0 -2301z m5578 2277 c69 -31 137 -106 157 -174 13 -44 15 -302 15 -2102 0 -1800 -2 -2058 -15 -2102 -20 -68 -88 -143 -157 -173 l-53 -24 -2240 -1 c-1232 -1 -2303 1 -2380 5 -129 6 -144 9 -188 34 -60 35 -102 87 -124 151 -16 47 -17 190 -17 2110 0 1919 1 2063 17 2110 34 99 116 168 218 182 29 5 1103 8 2384 8 l2330 -1 53 -23z m-5128 -5043 c77 -43 190 -83 280 -97 39 -7 253 -11 533 -11 l467 0 -6 -207 c-8 -248 -27 -344 -98 -480 -264 -507 -942 -619 -1360 -224 -132 126 -226 306 -256 491 -5 36 -10 144 -10 241 l0 176 55 7 c87 10 174 43 250 95 39 27 72 48 75 47 3 0 34 -18 70 -38z" style="fill: rgb(91, 91, 91);"/>
    <path d="M4028 5171 c-1 -3 -2 -133 -2 -288 l-1 -283 288 0 287 0 0 288 0 287 -285 1 c-157 1 -286 -1 -287 -5z" style="fill: rgb(140, 140, 140);"/>
    <path d="M5178 5170 c-1 -3 -2 -132 -2 -287 l-1 -283 288 0 287 0 0 288 0 288 -285 0 c-157 -1 -286 -3 -287 -6z" style="fill: rgb(140, 140, 140);"/>
    <path d="M6326 5170 c-3 -5 -1 -417 2 -517 l2 -53 285 0 285 0 0 289 0 289 -286 -1 c-157 -1 -287 -4 -288 -7z" style="fill: rgb(140, 140, 140);"/>
    <path d="M4029 4026 c-1 -1 -2 -130 -3 -288 l-2 -288 288 0 288 0 0 285 0 285 -47 2 c-50 1 -522 5 -524 4z" style="fill: rgb(140, 140, 140);"/>
    <path d="M5179 4025 c-1 0 -2 -129 -3 -287 l-2 -288 288 0 288 0 0 285 0 285 -27 2 c-21 1 -347 3 -544 3z" style="fill: rgb(140, 140, 140);"/>
    <path d="M6329 4025 c-1 0 -2 -129 -3 -287 l-2 -288 288 0 288 0 0 289 0 289 -285 -1 c-157 -1 -286 -2 -286 -2z" style="fill: rgb(140, 140, 140);"/>
  </g>
</svg>