<?xml version="1.0" encoding="utf-8"?>
<svg viewBox="0 0 500 500" xmlns="http://www.w3.org/2000/svg">
  <g transform="matrix(0.263306, 0, 0, -0.315316, -473.262756, 405.687714)" fill="#000000" stroke="none" style="">
    <g transform="matrix(1, 0, 0, 1, -855.661499, -1254.453369)" fill="#000000" stroke="none">
      <g transform="matrix(5.685192, 0, 0, -5.019597, 1068.394897, 1779.859009)" style="">
        <path class="accent" d="M 445.676 -142.941 C 462.662 -142.768 469.176 -142.016 482.996 -138.663 C 536.693 -125.481 580.405 -83.912 594.286 -32.976 C 598.121 -18.754 598.73 -13.319 598.73 4.777 C 598.73 22.874 598.121 28.308 594.286 42.531 C 580.405 93.524 536.693 135.036 482.996 148.218 C 468.019 151.86 462.296 152.438 443.241 152.438 C 428.142 152.438 424.916 152.322 418.28 151.224 C 383.943 145.5 354.538 130.931 331.22 107.92 C 308.512 85.546 294.753 59.702 289.03 28.482 C 287.873 22.18 287.751 19.116 287.751 4.777 C 287.751 -9.561 287.873 -12.625 289.03 -18.927 C 294.083 -46.447 305.468 -69.92 323.793 -90.618 C 349.85 -120.104 386.865 -138.663 427.716 -142.826 C 429.056 -142.999 437.153 -143.057 445.676 -142.941 Z M 423.942 -118.37 C 396.18 -114.38 370.854 -102.181 350.763 -83.044 C 325.68 -59.224 312.347 -28.813 312.347 4.777 C 312.347 38.368 325.68 68.779 350.763 92.599 C 375.846 116.419 407.869 129.081 443.241 129.081 C 478.612 129.081 510.636 116.419 535.718 92.599 C 560.801 68.779 574.134 38.368 574.134 4.777 C 574.134 -28.813 560.801 -59.224 535.718 -83.044 C 515.445 -102.355 490.18 -114.438 461.992 -118.37 C 451.277 -119.873 434.474 -119.873 423.942 -118.37 Z" fill="#fff" style=""/>
      </g>
    </g>
  </g>
  <g transform="matrix(0.091135, 0, 0, -0.091508, 12.952559, 481.840759)" fill="#000000" stroke="none" style="">
    <path d="M2385 4039 c-474 -64 -887 -348 -1110 -763 -24 -45 -53 -106 -65 -136 -12 -30 -24 -58 -28 -62 -4 -4 -43 2 -87 12 -44 11 -93 19 -108 20 -39 0 -81 -24 -95 -55 -27 -58 -18 -80 134 -324 81 -130 160 -249 177 -265 26 -25 36 -28 76 -24 38 4 86 30 276 148 127 78 241 154 255 167 20 19 25 33 25 72 0 75 -25 95 -147 123 -113 25 -110 18 -51 128 296 549 1012 727 1526 378 154 -104 264 -233 363 -422 85 -162 109 -181 225 -181 86 0 108 10 163 79 25 30 31 48 34 100 4 54 0 73 -28 137 -189 434 -581 750 -1055 850 -106 23 -374 33 -480 18z" style="fill: rgb(91, 91, 91);"/>
    <path d="M3574 2461 c-137 -82 -258 -159 -269 -171 -14 -15 -20 -36 -20 -67 0 -65 36 -93 153 -123 51 -12 92 -25 92 -28 0 -13 -66 -122 -105 -172 -24 -30 -76 -87 -116 -126 -404 -390 -1046 -389 -1457 0 -95 90 -156 173 -228 308 -68 129 -102 159 -188 166 -131 11 -225 -75 -226 -205 0 -43 9 -70 54 -160 329 -657 1093 -969 1794 -734 357 119 666 389 837 729 25 51 51 92 58 92 7 0 46 -9 87 -20 106 -28 126 -26 166 14 60 60 55 75 -118 364 -157 263 -173 282 -236 282 -20 0 -109 -48 -278 -149z" style="fill: rgb(140, 140, 140);"/>
  </g>
</svg>