<?xml version="1.0" encoding="utf-8"?>
<svg viewBox="0 0 500 500" xmlns="http://www.w3.org/2000/svg" xmlns:bx="https://boxy-svg.com">
  <g transform="matrix(0.278351, 0, 0, -0.315316, 3.539674, 384.696777)" fill="#000000" stroke="none" style="">
    <g transform="matrix(2.17356, 0, 0, 1.164379, -6273.041016, -826.926514)" fill="#000000" stroke="none" style="">
      <g transform="matrix(5.685192, 0, 0, -5.019597, 1068.394897, 1779.859009)" style="">
        <path class="accent" d="M 432.716 136.731 C 434.733 136.731 435.245 137.945 440.271 154.734 C 445.808 173.182 445.968 174.14 444.048 177.97 C 442.767 180.524 442.127 180.652 438.734 178.865 C 437.422 178.161 436.173 177.588 435.949 177.588 C 435.725 177.588 434.893 180.204 434.093 183.461 C 428.619 205.165 418.729 222.401 407.302 229.998 C 384.863 245 360.408 225.083 349.877 183.141 C 348.437 177.396 348.149 175.672 348.149 172.927 C 348.181 164.628 351.19 159.139 355.383 159.841 C 358.136 160.287 359.224 162.202 361.401 170.437 C 363.705 179.056 365.658 184.354 368.699 190.1 C 381.855 214.932 402.404 214.995 415.336 190.1 C 416.616 187.61 418.281 183.971 419.049 182.056 C 420.298 178.865 422.409 171.905 422.409 171.076 C 422.409 170.884 421.098 170.054 419.465 169.289 C 415.72 167.373 414.568 165.586 414.568 161.436 C 414.568 159.457 414.76 158.117 415.208 157.159 C 415.56 156.394 419.433 151.477 423.819 146.243 C 429.227 139.796 432.076 136.731 432.716 136.731 Z" fill="#fff" style="" bx:origin="0.445568 0.033385"/>
      </g>
    </g>
  </g>
  <g transform="matrix(0.110098, 0, 0, -0.117648, -31.898041, 551.017944)" fill="#000000" stroke="none" style="" bx:origin="0.547472 0.073554">
    <path d="M2385 4039 c-474 -64 -887 -348 -1110 -763 -24 -45 -53 -106 -65 -136 -12 -30 -24 -58 -28 -62 -4 -4 -43 2 -87 12 -44 11 -93 19 -108 20 -39 0 -81 -24 -95 -55 -27 -58 -18 -80 134 -324 81 -130 160 -249 177 -265 26 -25 36 -28 76 -24 38 4 86 30 276 148 127 78 241 154 255 167 20 19 25 33 25 72 0 75 -25 95 -147 123 -113 25 -110 18 -51 128 296 549 1012 727 1526 378 154 -104 264 -233 363 -422 85 -162 109 -181 225 -181 86 0 108 10 163 79 25 30 31 48 34 100 4 54 0 73 -28 137 -189 434 -581 750 -1055 850 -106 23 -374 33 -480 18z" style="fill: rgb(91, 91, 91);"/>
  </g>
</svg>