<?xml version="1.0" encoding="utf-8"?>
<svg viewBox="0 0 500 500" xmlns="http://www.w3.org/2000/svg">
  <g transform="matrix(0.1, 0, 0, -0.1, -393.375244, 379.591614)" fill="#000000" stroke="none">
    <g transform="matrix(1, 0, 0, 1, -855.661499, -1254.453369)" fill="#000000" stroke="none">
      <g transform="matrix(5.685192, 0, 0, -5.019597, 1068.394897, 1779.859009)" style="">
        <path class="accent" d="M 1279.364 3.652 C 1345.647 3.501 1379.2 4.105 1384.13 5.162 C 1410.972 11.354 1433.568 36.575 1439.457 66.779 C 1441.785 79.012 1442.196 149.388 1439.868 162.98 C 1434.801 193.638 1409.739 221.275 1381.939 226.862 C 1376.598 227.92 1341.265 228.524 1280.596 228.524 C 1177.748 228.524 1175.831 228.373 1159.534 219.16 C 1138.991 207.834 1122.831 181.254 1120.503 155.58 L 1119.819 148.482 L 1149.263 148.482 L 1149.947 155.127 C 1151.317 168.719 1161.314 184.274 1172.681 190.617 C 1183.226 196.507 1191.717 196.96 1286.622 196.507 L 1377.693 196.054 L 1385.225 192.127 C 1396.181 186.54 1402.344 179.895 1407.411 168.417 L 1411.93 158.298 L 1412.341 122.355 C 1413.026 71.612 1411.109 61.946 1397.277 47.75 C 1385.088 35.366 1390.292 35.971 1279.775 35.971 L 1181.856 35.971 L 1173.776 40.501 C 1169.394 42.918 1163.505 47.901 1160.492 51.526 C 1154.878 58.624 1149.673 71.763 1149.673 79.012 L 1149.673 83.542 L 1119.545 83.542 L 1120.366 76.293 C 1121.599 64.665 1125.981 50.167 1130.638 42.011 C 1140.498 24.946 1157.616 10.901 1174.735 5.766 C 1180.487 4.105 1200.071 3.652 1279.364 3.652 Z" fill="#fff" style=""/>
        <path class="accent" d="M 1006.288 5.766 C 1023.818 10.75 1040.936 24.644 1050.933 42.011 C 1055.727 50.318 1060.109 65.269 1061.068 76.293 L 1061.752 83.542 L 1031.898 83.542 L 1031.898 79.012 C 1031.898 71.763 1026.693 58.624 1021.079 51.526 C 1018.066 47.901 1012.177 42.918 1007.795 40.501 L 999.715 35.971 L 802.508 35.971 L 795.25 39.595 C 785.938 44.277 775.529 56.661 772.106 67.232 C 769.915 74.179 769.641 80.371 769.641 116.767 L 769.641 158.298 L 774.16 168.417 C 779.227 179.895 785.39 186.54 796.346 192.127 L 803.878 196.054 L 998.345 196.054 L 1005.877 192.127 C 1019.572 185.029 1030.117 169.927 1031.624 155.127 L 1032.308 148.482 L 1062.026 148.482 L 1061.205 154.825 C 1059.835 166.001 1056.411 177.629 1052.029 186.842 C 1046.414 198.621 1032.856 213.119 1022.037 219.16 C 1005.74 228.373 1003.823 228.524 900.974 228.524 C 840.306 228.524 804.973 227.92 799.632 226.862 C 771.832 221.275 746.77 193.638 741.703 162.98 C 739.375 149.388 739.786 79.012 742.114 66.779 C 747.729 37.783 768.408 13.619 794.565 5.766 C 804.836 2.595 995.332 2.595 1006.288 5.766 Z" fill="#fff" style=""/>
      </g>
    </g>
  </g>
  <g transform="matrix(0.077858, 0, 0, -0.075807, 1009.885803, 174.691376)" fill="#000000" stroke="none" style="">
    <g transform="matrix(1, 0, 0, 1, -855.661499, -1254.453369)" fill="#000000" stroke="none">
      <g transform="matrix(5.685192, 0, 0, -5.019597, 1068.394897, 1779.859009)" style="">
        <path class="accent" d="M -1734.153 -211.484 C -1708.472 -208.894 -1691.762 -204.909 -1668.896 -196.144 C -1585.521 -164.269 -1520.616 -90.757 -1492.473 3.673 C -1465.736 93.123 -1475.235 188.349 -1519.033 271.623 C -1551.222 332.783 -1606.981 382.987 -1668.896 406.694 C -1692.993 416.057 -1708.648 419.444 -1737.143 422.432 C -1817.528 430.202 -1898.967 396.135 -1957.189 330.193 C -1988.146 294.932 -2010.661 254.092 -2024.733 206.877 C -2054.635 106.869 -2038.628 -3.299 -1981.814 -87.968 C -1969.853 -106.097 -1943.117 -135.979 -1927.462 -149.327 C -1885.775 -184.39 -1834.414 -206.702 -1784.459 -211.484 C -1760.537 -213.675 -1756.14 -213.675 -1734.153 -211.484 Z M -1651.306 -0.311 C -1651.834 -0.311 -1685.254 37.142 -1725.534 82.763 L -1799.059 166.037 L -1832.479 128.185 L -1865.899 90.533 L -1872.407 97.705 C -1876.101 101.689 -1882.081 108.064 -1885.599 112.048 C -1889.293 115.834 -1892.283 119.619 -1892.283 120.416 C -1892.283 121.013 -1871.352 145.517 -1845.495 174.603 L -1798.883 227.596 L -1711.463 128.584 L -1624.042 29.572 L -1637.235 14.63 C -1644.446 6.462 -1650.779 -0.311 -1651.306 -0.311 Z" style="fill: rgb(140, 140, 140);"/>
      </g>
    </g>
  </g>
  <g transform="matrix(0.077858, 0, 0, -0.075807, -110.116211, 441.760742)" fill="#000000" stroke="none" style="">
    <path d="M3800 745 l0 -105 800 0 800 0 0 105 0 105 -800 0 -800 0 0 -105z" style="fill: rgb(91, 91, 91);"/>
  </g>
</svg>