<?xml version="1.0" encoding="utf-8"?>
<svg viewBox="0 0 500 500" xmlns="http://www.w3.org/2000/svg">
  <g transform="matrix(0.1, 0, 0, -0.1, 473.834106, 323.388489)" fill="#000000" stroke="none">
    <g transform="matrix(1, 0, 0, 1, -2874.234375, -907.171997)" fill="#000000" stroke="none">
      <g transform="matrix(5.685192, 0, 0, -5.019597, -11661.637695, 2094.582764)" style="">
        <path class="accent" d="M 2143.063 -322.112 C 2144.998 -321.713 2152.913 -321.116 2160.652 -320.518 C 2179.121 -318.924 2197.239 -313.147 2217.643 -302.389 C 2284.131 -266.729 2324.939 -189.83 2321.069 -107.154 C 2320.014 -87.631 2315.616 -59.342 2312.978 -57.549 C 2311.747 -56.553 2279.734 -67.31 2278.151 -69.103 C 2277.623 -69.502 2278.678 -76.873 2280.261 -85.439 C 2284.483 -106.357 2283.076 -143.213 2277.623 -162.936 C 2252.47 -252.584 2170.503 -300.596 2093.988 -270.315 C 2050.19 -252.983 2017.473 -213.936 2002.874 -161.94 C 1999.356 -149.19 1998.828 -142.815 1998.828 -118.111 C 1998.828 -96.596 1999.708 -85.838 2001.995 -76.275 C 2011.317 -37.627 2034.359 -2.365 2064.437 19.35 C 2071.825 24.729 2079.389 30.307 2080.972 31.701 C 2083.786 34.092 2079.213 43.256 2030.666 133.901 L 1977.193 233.311 L 1982.294 240.682 C 1992.672 255.624 1995.135 265.186 1995.311 290.288 C 1995.311 312.202 1994.959 313.995 1989.682 326.147 C 1982.646 342.284 1971.213 355.433 1956.965 364.198 C 1946.236 370.773 1945.532 370.972 1924.952 370.972 C 1904.373 370.972 1903.493 370.773 1891.884 364.198 C 1876.405 355.433 1862.685 338.698 1856.881 321.565 C 1853.539 311.604 1852.835 305.429 1852.835 289.093 C 1852.835 269.968 1853.187 268.573 1859.519 254.03 C 1867.259 235.901 1877.46 224.944 1894.171 215.78 C 1904.9 210.003 1906.835 209.604 1925.304 209.604 L 1944.829 209.803 L 1988.802 127.924 L 2032.6 46.244 L 2026.268 40.467 C 2015.363 30.506 2000.236 11.58 1990.913 -3.76 C 1959.604 -55.158 1951.161 -123.69 1968.926 -183.256 C 1991.617 -258.76 2053.708 -314.342 2123.011 -321.116 C 2132.157 -321.913 2141.128 -322.51 2143.063 -322.112 Z M 1903.845 259.21 C 1886.959 273.952 1884.672 298.456 1898.744 316.186 C 1910.881 331.327 1927.415 333.718 1943.07 322.761 C 1966.991 306.026 1962.946 266.382 1936.034 253.632 C 1925.128 248.452 1914.223 250.245 1903.845 259.21 Z" fill="#fff" style=""/>
      </g>
    </g>
  </g>
  <g transform="matrix(0.1, 0, 0, -0.1, -18.880733, 514.360291)" fill="#000000" stroke="none">
    <path d="M2450 4084 c-114 -31 -211 -113 -264 -224 -29 -60 -31 -73 -31 -175 0 -104 2 -114 32 -175 77 -156 240 -248 423 -238 l50 3 265 -480 c146 -264 266 -484 268 -488 1 -5 54 17 117 47 143 69 206 87 341 93 605 30 1027 -595 773 -1145 -191 -416 -677 -591 -1089 -393 -44 21 -110 61 -147 89 -37 29 -71 52 -75 52 -4 0 -39 -34 -76 -75 l-68 -74 33 -31 c59 -55 196 -141 281 -177 121 -51 225 -73 367 -80 144 -6 276 16 409 67 359 139 619 484 649 863 16 203 -14 368 -98 542 -157 324 -457 535 -817 575 -149 16 -294 -3 -450 -60 l-51 -19 -222 402 c-136 247 -218 407 -213 414 102 148 116 188 111 311 -2 72 -8 98 -34 152 -87 184 -288 277 -484 224z m197 -221 c109 -50 144 -193 72 -293 -101 -139 -329 -84 -355 87 -10 66 10 120 61 170 64 61 140 73 222 36z" style="fill: rgb(140, 140, 140);"/>
    <path d="M1002 2615 c-349 -119 -595 -398 -679 -768 -22 -98 -21 -316 1 -419 78 -362 346 -660 691 -768 387 -120 775 -20 1048 271 136 144 225 317 263 512 l17 87 472 0 471 0 23 -56 c14 -32 47 -81 78 -115 245 -264 680 -111 710 251 20 235 -171 440 -409 440 -164 0 -307 -92 -376 -242 l-26 -58 -566 0 -566 0 -11 -137 c-14 -158 -37 -244 -94 -352 -230 -430 -775 -566 -1178 -293 -115 78 -239 232 -292 364 -62 150 -76 362 -35 513 70 257 275 476 523 560 37 12 68 26 68 31 0 19 -50 204 -55 204 -3 0 -38 -12 -78 -25z m2739 -786 c105 -36 162 -136 134 -241 -46 -177 -289 -199 -366 -33 -51 109 2 229 120 271 45 16 69 17 112 3z" style="fill: rgb(91, 91, 91);"/>
  </g>
</svg>